<svg width="203" height="202" viewBox="0 0 203 202" fill="none" xmlns="http://www.w3.org/2000/svg">
<g filter="url(#filter0_d_15_1456)">
<path d="M91.8985 192.835C91.7788 192.835 91.653 192.832 91.5256 192.825C91.5056 192.825 91.4857 192.825 91.4657 192.824C82.6836 192.764 75.0171 181.889 67.9935 159.581C62.5183 142.189 58.0083 118.884 55.9305 97.2439C55.7326 95.1845 57.2426 93.3538 59.3019 93.1559C61.3566 92.9533 63.1919 94.4664 63.3899 96.5272C65.4216 117.678 69.8135 140.407 75.1414 157.33C81.6478 177.996 88.0207 185.329 91.5026 185.329L91.6714 185.331C91.7297 185.332 91.7864 185.334 91.8432 185.337L91.9015 185.34C91.9169 185.338 91.9322 185.335 91.946 185.334C91.9614 185.329 91.9767 185.326 91.9921 185.322L91.9998 185.318C92.0228 185.306 92.0412 185.297 92.0581 185.288L92.1087 185.252C92.1501 185.225 92.1762 185.206 92.2008 185.185L92.2576 185.137C92.2867 185.111 92.3235 185.078 92.3588 185.042L92.4494 184.955C92.5031 184.896 92.5568 184.834 92.609 184.769C92.6274 184.746 92.6519 184.717 92.678 184.686C92.7379 184.608 92.8054 184.513 92.8806 184.401L92.9512 184.287C93.0187 184.181 93.0785 184.085 93.1368 183.983C93.1491 183.962 93.1614 183.942 93.1721 183.922C93.1906 183.885 93.2105 183.85 93.2289 183.815C93.4361 183.437 93.6294 183.029 93.8105 182.585C94.7573 180.258 95.1471 177.598 94.9399 174.894C94.8126 173.236 94.7481 171.554 94.7481 169.898C94.7481 151.787 102.715 138.953 110.21 136.069C112.141 135.328 114.31 136.29 115.053 138.222C115.796 140.154 114.832 142.322 112.9 143.065C110.054 144.159 102.241 152.553 102.241 169.899C102.241 171.365 102.298 172.853 102.412 174.325C102.706 178.181 102.132 182.013 100.753 185.407C100.475 186.092 100.16 186.756 99.8197 187.382C99.7844 187.453 99.7476 187.522 99.7108 187.59C99.6694 187.663 99.6325 187.725 99.5957 187.783C99.4867 187.97 99.3747 188.151 99.2612 188.328L99.2412 188.358C99.1952 188.432 99.1476 188.506 99.1016 188.576C98.8898 188.891 98.7011 189.15 98.5108 189.388C98.4663 189.443 98.4233 189.494 98.3803 189.545C98.2008 189.761 98.0381 189.947 97.8724 190.122C97.7957 190.203 97.7236 190.273 97.6514 190.344C97.478 190.514 97.3215 190.662 97.1635 190.798C97.0622 190.886 96.967 190.964 96.8719 191.041C96.697 191.18 96.5236 191.308 96.3471 191.427C96.2458 191.498 96.1507 191.562 96.0571 191.622C95.8576 191.748 95.6381 191.872 95.411 191.988C95.345 192.023 95.279 192.057 95.2115 192.089C94.9062 192.233 94.6008 192.354 94.2693 192.46C94.188 192.486 94.1005 192.512 94.01 192.535C93.7936 192.597 93.5911 192.646 93.3946 192.684C93.3225 192.7 93.2504 192.715 93.1783 192.727C93.0954 192.743 92.9957 192.755 92.8913 192.766C92.7056 192.79 92.5292 192.807 92.3573 192.816C92.2391 192.824 92.1225 192.828 92.0074 192.83C91.9752 192.835 91.9368 192.835 91.8985 192.835ZM93.0187 192.752C93.0049 192.753 92.9911 192.756 92.9757 192.758C92.9911 192.755 93.0049 192.753 93.0187 192.752ZM98.431 189.488C98.4202 189.502 98.408 189.515 98.3972 189.529C98.408 189.515 98.4187 189.502 98.431 189.488ZM99.8013 187.422C99.7967 187.43 99.7936 187.436 99.789 187.444C99.7921 187.438 99.7967 187.43 99.8013 187.422ZM91.7036 185.334L91.8095 185.34C91.7726 185.337 91.7389 185.334 91.7036 185.334ZM91.9721 185.329C91.9706 185.329 91.9706 185.331 91.9721 185.329V185.329Z" fill="white"/>
<path d="M165.749 131.022C165.475 131.022 165.197 130.991 164.918 130.928C162.9 130.471 161.634 128.464 162.091 126.446C165.292 112.311 166.254 107.178 167.617 92.9777L167.641 92.7752C167.661 92.6448 167.68 92.5143 167.698 92.3839L167.746 92.0509C167.784 91.7931 167.819 91.5383 167.855 91.2851C167.902 90.946 167.948 90.6069 167.993 90.2678C168.037 89.9302 168.077 89.5941 168.119 89.2565L168.151 88.9895C168.174 88.8069 168.195 88.6243 168.215 88.4432C168.283 87.8509 168.343 87.2616 168.398 86.6739L168.444 86.1429C168.484 85.6871 168.521 85.2375 168.554 84.7895L168.594 84.1956C168.623 83.7445 168.65 83.2948 168.669 82.8468L168.692 82.3649C168.745 81.1081 168.763 79.8759 168.746 78.702L168.742 78.4795C168.732 77.9408 168.716 77.413 168.692 76.8882C168.691 76.8467 168.688 76.7838 168.686 76.7209L168.68 76.5828L168.685 76.4477C168.732 74.884 168.755 73.3035 168.755 71.7536C168.755 59.4681 161.961 47.0721 146.782 47.0721H146.4L146.121 47.0292C143.37 46.6118 140.126 47.0031 137.029 47.4865L136.84 47.5156L136.65 47.5264C130.019 47.8793 122.73 51.4379 119.227 53.1474C117.546 53.9668 116.781 54.3413 115.955 54.4855L115.308 54.599L114.658 54.4855C113.834 54.3413 113.067 53.9668 111.387 53.1474C107.884 51.4379 100.594 47.8793 93.9638 47.5264L93.772 47.5156L93.5832 47.4865C90.4881 47.0031 87.2425 46.6118 84.4911 47.0292L84.2118 47.0721H83.8313C76.4778 47.0721 70.9765 48.8553 67.4808 52.3709C64.2721 55.598 62.647 60.3934 62.647 66.6252C62.647 68.6953 60.9698 70.3725 58.8997 70.3725C56.8296 70.3725 55.1523 68.6953 55.1523 66.6252C55.1523 58.3433 57.5125 51.7694 62.1667 47.0875C67.0895 42.1356 74.3217 39.6082 83.6609 39.579C87.2655 39.0834 91.019 39.5069 94.5592 40.0547C102.646 40.5412 110.759 44.5018 114.675 46.4123C114.884 46.5136 115.1 46.6194 115.308 46.7207C115.515 46.621 115.731 46.5151 115.94 46.4123C119.856 44.5018 127.969 40.5412 136.056 40.0547C139.596 39.5069 143.351 39.0834 146.956 39.579C156.105 39.6235 163.767 43.2128 169.122 49.9663C173.72 55.7638 176.252 63.5009 176.252 71.7551C176.252 73.3419 176.229 74.9577 176.181 76.5597C176.207 77.1551 176.227 77.749 176.236 78.3459L176.242 78.5992C176.261 79.9127 176.241 81.2846 176.183 82.6764L176.158 83.2073C176.135 83.6969 176.107 84.191 176.074 84.6867L176.031 85.3281C175.995 85.8222 175.955 86.3102 175.911 86.8012L175.896 86.9777C175.885 87.1127 175.873 87.2478 175.86 87.3828C175.802 88.012 175.736 88.6473 175.664 89.2856C175.641 89.4897 175.615 89.6969 175.59 89.9041L175.56 90.1572C175.517 90.5179 175.472 90.877 175.426 91.2376C175.378 91.5982 175.329 91.9603 175.279 92.3225C175.24 92.5941 175.202 92.8657 175.162 93.1358L175.122 93.4212C175.105 93.5455 175.087 93.6698 175.068 93.7941C173.669 108.349 172.679 113.631 169.401 128.105C169.007 129.842 167.462 131.022 165.749 131.022Z" fill="white"/>
<path d="M138.714 192.834C138.67 192.834 138.625 192.834 138.581 192.833C138.486 192.831 138.369 192.827 138.254 192.819C138.077 192.808 137.895 192.791 137.712 192.767C137.608 192.756 137.505 192.742 137.402 192.724L137.178 192.678C136.982 192.638 136.782 192.589 136.586 192.532C136.498 192.509 136.415 192.484 136.334 192.458C136.01 192.354 135.703 192.233 135.404 192.09C135.334 192.056 135.266 192.022 135.2 191.987C134.979 191.875 134.754 191.748 134.539 191.613C134.456 191.561 134.362 191.498 134.267 191.432C134.085 191.306 133.911 191.178 133.738 191.04C133.641 190.964 133.546 190.884 133.451 190.802C133.287 190.66 133.13 190.512 132.975 190.359C132.885 190.272 132.812 190.199 132.742 190.124C132.565 189.937 132.398 189.747 132.225 189.537C132.182 189.486 132.14 189.437 132.099 189.385C131.909 189.145 131.721 188.887 131.522 188.591C131.462 188.501 131.414 188.427 131.368 188.353L131.341 188.309C131.235 188.145 131.124 187.965 131.014 187.776C130.976 187.717 130.94 187.657 130.905 187.594C130.86 187.515 130.824 187.443 130.788 187.373C130.443 186.738 130.132 186.079 129.857 185.399C128.425 181.878 127.141 172.264 127.141 170.329C127.141 163.526 122.319 154.095 114.243 145.101C106.13 136.064 98.5309 131.623 95.9498 131.468C93.8844 131.344 92.3099 129.568 92.4358 127.501C92.5601 125.436 94.3278 123.863 96.4025 123.987C103.391 124.409 113.385 132.928 119.821 140.094C124.276 145.055 134.637 157.933 134.637 170.329C134.649 171.71 135.851 180.237 136.802 182.579C136.983 183.024 137.177 183.431 137.393 183.825C137.408 183.853 137.425 183.883 137.442 183.917C137.453 183.935 137.464 183.954 137.476 183.974C137.536 184.078 137.596 184.175 137.655 184.267L137.754 184.422C137.813 184.509 137.879 184.601 137.938 184.68C137.967 184.712 137.995 184.746 138.022 184.781C138.062 184.829 138.113 184.89 138.166 184.948L138.248 185.027C138.292 185.071 138.329 185.105 138.364 185.137L138.417 185.18C138.44 185.198 138.466 185.217 138.492 185.235L138.556 185.28C138.575 185.29 138.59 185.298 138.604 185.306L138.624 185.317C138.639 185.321 138.653 185.324 138.667 185.329C138.677 185.33 138.687 185.332 138.697 185.333L138.771 185.332C138.816 185.33 138.862 185.327 138.906 185.327L139.076 185.324C146.31 185.324 152.617 172.924 158.396 147.412C158.853 145.394 160.862 144.127 162.879 144.585C164.896 145.043 166.162 147.05 165.705 149.068C162.426 163.543 158.958 173.95 155.103 180.883C150.705 188.791 145.334 192.807 139.141 192.82C139.124 192.82 139.107 192.82 139.092 192.82C138.972 192.831 138.845 192.834 138.714 192.834ZM137.06 192.649C137.069 192.65 137.078 192.653 137.088 192.656L137.06 192.649ZM138.791 185.41L138.809 185.421C138.803 185.418 138.797 185.413 138.791 185.41ZM138.981 185.404L139.003 185.41C138.995 185.407 138.987 185.406 138.981 185.404ZM138.521 185.264C138.524 185.266 138.525 185.267 138.529 185.269L138.521 185.264Z" fill="white"/>
<path d="M190.257 146.272C190.135 146.272 190.012 146.266 189.888 146.254C188.711 146.139 160.627 143.246 124.191 127.546C102.804 118.331 83.0089 106.589 65.3556 92.6478C43.2721 75.2078 24.5032 54.2614 9.57067 30.3932C8.47348 28.6393 9.00596 26.3267 10.7599 25.2296C12.5154 24.1308 14.8264 24.6648 15.9252 26.4188C48.6506 78.7265 94.3398 106.482 126.906 120.555C162.317 135.856 190.343 138.767 190.621 138.794C192.679 138.998 194.184 140.832 193.982 142.89C193.791 144.826 192.162 146.272 190.257 146.272Z" fill="#4AD891"/>
<path d="M44.5883 53.82C43.7965 53.82 42.9986 53.5699 42.3203 53.0527C26.5346 41.025 18.4905 23.1738 18.156 22.4188C17.3166 20.5268 18.1698 18.3124 20.0604 17.473C21.9494 16.6352 24.1637 17.4853 25.0046 19.3743C25.0798 19.5416 32.6451 36.2573 46.8625 47.0895C48.5091 48.3433 48.8267 50.6957 47.5715 52.3423C46.8349 53.3121 45.7178 53.82 44.5883 53.82Z" fill="#4AD891"/>
<path d="M52.8061 45.6696C52.0143 45.6696 51.2163 45.4194 50.538 44.9023C34.7523 32.8746 26.7083 15.0234 26.3737 14.2684C25.5344 12.3763 26.3876 10.162 28.2796 9.32262C30.1671 8.48477 32.383 9.33487 33.2239 11.2239C33.2991 11.3912 40.8643 28.1068 55.0818 38.9391C56.7284 40.1928 57.046 42.5453 55.7908 44.1918C55.0526 45.1601 53.9355 45.6696 52.8061 45.6696Z" fill="#83D4F7"/>
</g>
<defs>
<filter id="filter0_d_15_1456" x="0.4" y="0.4" width="202.2" height="201.035" filterUnits="userSpaceOnUse" color-interpolation-filters="sRGB">
<feFlood flood-opacity="0" result="BackgroundImageFix"/>
<feColorMatrix in="SourceAlpha" type="matrix" values="0 0 0 0 0 0 0 0 0 0 0 0 0 0 0 0 0 0 127 0" result="hardAlpha"/>
<feOffset/>
<feGaussianBlur stdDeviation="4.3"/>
<feComposite in2="hardAlpha" operator="out"/>
<feColorMatrix type="matrix" values="0 0 0 0 1 0 0 0 0 1 0 0 0 0 1 0 0 0 1 0"/>
<feBlend mode="normal" in2="BackgroundImageFix" result="effect1_dropShadow_15_1456"/>
<feBlend mode="normal" in="SourceGraphic" in2="effect1_dropShadow_15_1456" result="shape"/>
</filter>
</defs>
</svg>
