<svg width="24" height="24" viewBox="0 0 24 24" fill="none" xmlns="http://www.w3.org/2000/svg">
<path fill-rule="evenodd" clip-rule="evenodd" d="M12 3C11.1716 3 10.5 3.67157 10.5 4.5C10.5 5.32843 11.1716 6 12 6C12.8284 6 13.5 5.32843 13.5 4.5C13.5 3.67157 12.8284 3 12 3ZM14.7497 6.66574C15.2196 6.06994 15.5 5.31772 15.5 4.5C15.5 2.567 13.933 1 12 1C10.067 1 8.5 2.567 8.5 4.5C8.5 5.31772 8.78042 6.06994 9.25035 6.66574C7.56631 7.53558 6.34701 9.17948 6.06308 11.1268C4.58502 11.5365 3.5 12.8915 3.5 14.5C3.5 15.3177 3.78042 16.0699 4.25034 16.6657C2.31978 17.6629 1 19.6773 1 22C1 22.5523 1.44772 23 2 23C2.55228 23 3 22.5523 3 22C3 19.7909 4.79086 18 7 18C9.20912 18 11 19.7909 11 22C11 22.5523 11.4477 23 12 23C12.5523 23 13 22.5523 13 22C13 19.7909 14.7909 18 17 18C19.2091 18 21 19.7909 21 22C21 22.5523 21.4477 23 22 23C22.5523 23 23 22.5523 23 22C23 19.6773 21.6802 17.6629 19.7497 16.6657C20.2196 16.0699 20.5 15.3177 20.5 14.5C20.5 12.8915 19.415 11.5365 17.9369 11.1268C17.653 9.17948 16.4337 7.53558 14.7497 6.66574ZM15.9141 11.1717C15.5327 9.36005 13.9251 8 12 8C10.0749 8 8.46734 9.36005 8.08587 11.1717C9.4873 11.6286 10.5 12.9461 10.5 14.5C10.5 15.3177 10.2196 16.0699 9.74965 16.6657C10.6606 17.1362 11.4355 17.8332 12 18.6822C12.5645 17.8332 13.3394 17.1362 14.2503 16.6657C13.7804 16.0699 13.5 15.3177 13.5 14.5C13.5 12.9461 14.5127 11.6286 15.9141 11.1717ZM17 16C17.8284 16 18.5 15.3284 18.5 14.5C18.5 13.6716 17.8284 13 17 13C16.1716 13 15.5 13.6716 15.5 14.5C15.5 15.3284 16.1716 16 17 16ZM7 16C7.82843 16 8.5 15.3284 8.5 14.5C8.5 13.6716 7.82843 13 7 13C6.17157 13 5.5 13.6716 5.5 14.5C5.5 15.3284 6.17157 16 7 16Z" fill="#F4F3FA"/>
<path d="M8.5 14.5C8.5 15.3284 7.82843 16 7 16C6.17157 16 5.5 15.3284 5.5 14.5C5.5 13.6716 6.17157 13 7 13C7.82843 13 8.5 13.6716 8.5 14.5Z" fill="#19F7E0" fill-opacity="0.05"/>
<path d="M18.5 14.5C18.5 15.3284 17.8284 16 17 16C16.1716 16 15.5 15.3284 15.5 14.5C15.5 13.6716 16.1716 13 17 13C17.8284 13 18.5 13.6716 18.5 14.5Z" fill="#19F7E0" fill-opacity="0.05"/>
<path d="M10.5 4.5C10.5 3.67157 11.1716 3 12 3C12.8284 3 13.5 3.67157 13.5 4.5C13.5 5.32843 12.8284 6 12 6C11.1716 6 10.5 5.32843 10.5 4.5Z" fill="#19F7E0" fill-opacity="0.05"/>
</svg>
