<svg width="25" height="25" viewBox="0 0 25 25" fill="none" xmlns="http://www.w3.org/2000/svg">
<path d="M19.5 11.5H13.5V5.5C13.5 5.23478 13.3946 4.98043 13.2071 4.79289C13.0196 4.60536 12.7652 4.5 12.5 4.5C12.2348 4.5 11.9804 4.60536 11.7929 4.79289C11.6054 4.98043 11.5 5.23478 11.5 5.5V11.5H5.5C5.23478 11.5 4.98043 11.6054 4.79289 11.7929C4.60536 11.9804 4.5 12.2348 4.5 12.5C4.5 12.7652 4.60536 13.0196 4.79289 13.2071C4.98043 13.3946 5.23478 13.5 5.5 13.5H11.5V19.5C11.5 19.7652 11.6054 20.0196 11.7929 20.2071C11.9804 20.3946 12.2348 20.5 12.5 20.5C12.7652 20.5 13.0196 20.3946 13.2071 20.2071C13.3946 20.0196 13.5 19.7652 13.5 19.5V13.5H19.5C19.7652 13.5 20.0196 13.3946 20.2071 13.2071C20.3946 13.0196 20.5 12.7652 20.5 12.5C20.5 12.2348 20.3946 11.9804 20.2071 11.7929C20.0196 11.6054 19.7652 11.5 19.5 11.5Z" fill="#F4F3FA"/>
</svg>
