<svg width="33" height="33" viewBox="0 0 33 33" fill="none" xmlns="http://www.w3.org/2000/svg">
<rect x="0.735352" y="0.5" width="32" height="32" rx="16" fill="black"/>
<path d="M16.738 8.63034C19.3032 8.63034 19.6043 8.64178 20.6181 8.68751C21.5558 8.72944 22.0627 8.88571 22.4019 9.01912C22.8517 9.19445 23.1719 9.40027 23.5073 9.73569C23.8427 10.0711 24.0523 10.3913 24.2239 10.841C24.3535 11.1803 24.5135 11.6872 24.5555 12.6248C24.6012 13.6387 24.6126 13.9398 24.6126 16.505C24.6126 19.0702 24.6012 19.3713 24.5555 20.3851C24.5135 21.3228 24.3573 21.8297 24.2239 22.1689C24.0485 22.6187 23.8427 22.9389 23.5073 23.2743C23.1719 23.6097 22.8517 23.8193 22.4019 23.9908C22.0627 24.1204 21.5558 24.2805 20.6181 24.3225C19.6043 24.3682 19.3032 24.3796 16.738 24.3796C14.1728 24.3796 13.8717 24.3682 12.8578 24.3225C11.9202 24.2805 11.4133 24.1243 11.074 23.9908C10.6243 23.8155 10.3041 23.6097 9.9687 23.2743C9.63328 22.9389 9.42364 22.6187 9.25213 22.1689C9.12253 21.8297 8.96245 21.3228 8.92052 20.3851C8.87478 19.3713 8.86335 19.0702 8.86335 16.505C8.86335 13.9398 8.87478 13.6387 8.92052 12.6248C8.96245 11.6872 9.11872 11.1803 9.25213 10.841C9.42746 10.3913 9.63328 10.0711 9.9687 9.73569C10.3041 9.40027 10.6243 9.19064 11.074 9.01912C11.4133 8.88953 11.9202 8.72944 12.8578 8.68751C13.8717 8.63796 14.1766 8.63034 16.738 8.63034ZM16.738 6.8999C14.1309 6.8999 13.8031 6.91134 12.7778 6.95708C11.7563 7.00281 11.0588 7.16671 10.4489 7.40303C9.81623 7.64696 9.28262 7.97857 8.749 8.51218C8.21539 9.0458 7.88759 9.58323 7.63984 10.2121C7.40353 10.822 7.23963 11.5195 7.19389 12.5448C7.14815 13.5663 7.13672 13.8941 7.13672 16.5012C7.13672 19.1083 7.14815 19.4361 7.19389 20.4614C7.23963 21.4829 7.40353 22.1804 7.63984 22.794C7.88378 23.4267 8.21539 23.9604 8.749 24.494C9.28262 25.0276 9.82004 25.3554 10.4489 25.6031C11.0588 25.8394 11.7563 26.0033 12.7816 26.0491C13.8069 26.0948 14.1309 26.1063 16.7418 26.1063C19.3527 26.1063 19.6767 26.0948 20.702 26.0491C21.7235 26.0033 22.421 25.8394 23.0347 25.6031C23.6674 25.3592 24.201 25.0276 24.7346 24.494C25.2682 23.9604 25.596 23.4229 25.8438 22.794C26.0801 22.1842 26.244 21.4867 26.2897 20.4614C26.3355 19.4361 26.3469 19.1121 26.3469 16.5012C26.3469 13.8903 26.3355 13.5663 26.2897 12.541C26.244 11.5195 26.0801 10.822 25.8438 10.2083C25.5998 9.5756 25.2682 9.04199 24.7346 8.50837C24.201 7.97476 23.6636 7.64696 23.0347 7.39921C22.4248 7.1629 21.7273 6.999 20.702 6.95326C19.6729 6.91134 19.3451 6.8999 16.738 6.8999Z" fill="white"/>
<path d="M16.7378 11.5728C14.0164 11.5728 11.8057 13.7796 11.8057 16.5049C11.8057 19.2301 14.0125 21.437 16.7378 21.437C19.463 21.437 21.6699 19.2301 21.6699 16.5049C21.6699 13.7796 19.463 11.5728 16.7378 11.5728ZM16.7378 19.7028C14.9692 19.7028 13.5361 18.2696 13.5361 16.5011C13.5361 14.7325 14.9692 13.2994 16.7378 13.2994C18.5064 13.2994 19.9395 14.7325 19.9395 16.5011C19.9395 18.2696 18.5064 19.7028 16.7378 19.7028Z" fill="white"/>
<path d="M21.8645 12.5258C22.5002 12.5258 23.0155 12.0104 23.0155 11.3747C23.0155 10.739 22.5002 10.2236 21.8645 10.2236C21.2287 10.2236 20.7134 10.739 20.7134 11.3747C20.7134 12.0104 21.2287 12.5258 21.8645 12.5258Z" fill="white"/>
</svg>
