<svg width="33" height="33" viewBox="0 0 33 33" fill="none" xmlns="http://www.w3.org/2000/svg">
<rect x="0.735352" y="0.5" width="32" height="32" rx="16" fill="#0A66C2"/>
<path d="M24.2363 7.7002H9.23477C8.89019 7.7002 8.55973 7.83708 8.31608 8.08073C8.07243 8.32438 7.93555 8.65484 7.93555 8.99942V24.001C7.93555 24.3455 8.07243 24.676 8.31608 24.9197C8.55973 25.1633 8.89019 25.3002 9.23477 25.3002H24.2363C24.5809 25.3002 24.9114 25.1633 25.155 24.9197C25.3987 24.676 25.5355 24.3455 25.5355 24.001V8.99942C25.5355 8.65484 25.3987 8.32438 25.155 8.08073C24.9114 7.83708 24.5809 7.7002 24.2363 7.7002ZM13.1813 22.6932H10.5352V14.288H13.1813V22.6932ZM11.8564 13.1232C11.5563 13.1215 11.2634 13.0309 11.0146 12.8629C10.7659 12.6949 10.5725 12.457 10.4589 12.1792C10.3452 11.9013 10.3164 11.5961 10.3761 11.3019C10.4358 11.0078 10.5813 10.7379 10.7942 10.5263C11.0071 10.3147 11.2779 10.171 11.5725 10.1132C11.867 10.0554 12.1721 10.0862 12.4492 10.2016C12.7263 10.317 12.9629 10.5119 13.1294 10.7617C13.2958 11.0115 13.3844 11.305 13.3842 11.6052C13.387 11.8062 13.3494 12.0056 13.2735 12.1917C13.1976 12.3778 13.085 12.5467 12.9424 12.6884C12.7999 12.83 12.6302 12.9415 12.4437 13.0162C12.2571 13.0909 12.0574 13.1273 11.8564 13.1232ZM22.9347 22.7005H20.2898V18.1086C20.2898 16.7544 19.7141 16.3364 18.971 16.3364C18.1863 16.3364 17.4163 16.928 17.4163 18.1429V22.7005H14.7702V14.2941H17.3149V15.4589H17.3491C17.6045 14.9419 18.4992 14.0582 19.8644 14.0582C21.3409 14.0582 22.9359 14.9345 22.9359 17.5012L22.9347 22.7005Z" fill="white"/>
</svg>
