<svg width="310" height="145" viewBox="0 0 310 145" fill="none" xmlns="http://www.w3.org/2000/svg">
<g filter="url(#filter0_d_106_698)">
<circle cx="75.241" cy="72.4998" r="47.8308" fill="#0D0505"/>
</g>
<g filter="url(#filter1_d_106_698)">
<path d="M70.4174 95.3413C70.3846 95.3413 70.3501 95.3404 70.3152 95.3388C70.3097 95.3388 70.3042 95.3388 70.2988 95.3384C67.8916 95.3219 65.7901 92.341 63.865 86.2265C62.3642 81.4592 61.128 75.0712 60.5585 69.1397C60.5042 68.5752 60.9181 68.0734 61.4826 68.0191C62.0458 67.9636 62.5489 68.3783 62.6031 68.9432C63.16 74.7406 64.3638 80.9708 65.8242 85.6094C67.6076 91.2739 69.3545 93.284 70.3089 93.284L70.3551 93.2845C70.3711 93.2849 70.3867 93.2853 70.4022 93.2861L70.4182 93.287C70.4224 93.2866 70.4266 93.2857 70.4304 93.2853C70.4346 93.284 70.4388 93.2832 70.443 93.2819L70.4451 93.2811C70.4515 93.2777 70.4565 93.2752 70.4611 93.2727L70.475 93.263C70.4864 93.2554 70.4935 93.2504 70.5002 93.2445L70.5158 93.2315C70.5238 93.2243 70.5339 93.2151 70.5436 93.2054L70.5684 93.1814C70.5831 93.1654 70.5978 93.1482 70.6121 93.1305C70.6172 93.1242 70.6239 93.1162 70.6311 93.1078C70.6475 93.0864 70.666 93.0603 70.6866 93.0296L70.7059 92.9984C70.7244 92.9694 70.7408 92.9429 70.7568 92.9152C70.7602 92.9093 70.7635 92.9038 70.7665 92.8983C70.7715 92.8882 70.777 92.8786 70.7821 92.8689C70.8388 92.7654 70.8918 92.6535 70.9415 92.532C71.201 91.8939 71.3078 91.165 71.251 90.4238C71.2161 89.9691 71.1985 89.5082 71.1985 89.0543C71.1985 84.0902 73.3823 80.5721 75.4366 79.7818C75.9658 79.5786 76.5605 79.8423 76.7641 80.3719C76.9677 80.9014 76.7035 81.4958 76.174 81.6994C75.3937 81.9993 73.2523 84.3 73.2523 89.0547C73.2523 89.4564 73.2679 89.8644 73.299 90.2678C73.3798 91.3248 73.2225 92.3751 72.8443 93.3055C72.7682 93.4931 72.682 93.6752 72.5886 93.8468C72.5789 93.8662 72.5688 93.8851 72.5588 93.9036C72.5474 93.9238 72.5373 93.9406 72.5272 93.9566C72.4973 94.0079 72.4666 94.0576 72.4355 94.1059L72.43 94.1143C72.4174 94.1345 72.4044 94.1547 72.3918 94.1741C72.3337 94.2603 72.282 94.3314 72.2298 94.3966C72.2176 94.4117 72.2059 94.4256 72.1941 94.4395C72.1449 94.4988 72.1003 94.5497 72.0548 94.5976C72.0338 94.6199 72.014 94.6393 71.9943 94.6586C71.9467 94.7053 71.9038 94.7457 71.8605 94.7831C71.8328 94.8071 71.8067 94.8286 71.7806 94.8496C71.7327 94.8879 71.6851 94.9228 71.6368 94.9556C71.609 94.9749 71.5829 94.9926 71.5573 95.009C71.5026 95.0435 71.4424 95.0776 71.3802 95.1091C71.3621 95.1188 71.344 95.128 71.3255 95.1369C71.2418 95.1764 71.1581 95.2096 71.0672 95.2387C71.0449 95.2458 71.021 95.253 70.9962 95.2593C70.9368 95.2761 70.8813 95.2896 70.8275 95.3001C70.8077 95.3043 70.7879 95.3085 70.7682 95.3118C70.7455 95.316 70.7181 95.3194 70.6895 95.3224C70.6386 95.3291 70.5903 95.3337 70.5431 95.3362C70.5108 95.3383 70.4788 95.3396 70.4472 95.34C70.4384 95.3413 70.4279 95.3413 70.4174 95.3413ZM70.7244 95.3186C70.7206 95.319 70.7169 95.3198 70.7127 95.3203C70.7169 95.3194 70.7206 95.319 70.7244 95.3186ZM72.208 94.4239C72.205 94.4277 72.2016 94.4315 72.1987 94.4353C72.2016 94.4315 72.2046 94.4277 72.208 94.4239ZM72.5836 93.8578C72.5823 93.8599 72.5815 93.8616 72.5802 93.8637C72.581 93.862 72.5823 93.8599 72.5836 93.8578ZM70.364 93.2853L70.393 93.287C70.3829 93.2861 70.3736 93.2853 70.364 93.2853ZM70.4376 93.284C70.4371 93.284 70.4371 93.2845 70.4376 93.284V93.284Z" fill="white"/>
<path d="M90.6566 78.3988C90.5814 78.3988 90.5052 78.3904 90.4287 78.3732C89.8756 78.2478 89.5285 77.6976 89.6539 77.1445C90.5313 73.2702 90.795 71.8632 91.1685 67.9708L91.1753 67.9153C91.1807 67.8796 91.1858 67.8438 91.1908 67.8081L91.2039 67.7168C91.2144 67.6461 91.2241 67.5763 91.2337 67.5069C91.2468 67.4139 91.2594 67.321 91.2716 67.228C91.2838 67.1355 91.2947 67.0434 91.3061 66.9508L91.3149 66.8776C91.3212 66.8276 91.3271 66.7775 91.3326 66.7279C91.3511 66.5655 91.3675 66.404 91.3826 66.2429L91.3952 66.0974C91.4062 65.9725 91.4163 65.8492 91.4255 65.7264L91.4365 65.5636C91.4445 65.44 91.4516 65.3167 91.4571 65.1939L91.4634 65.0618C91.4777 64.7173 91.4827 64.3796 91.4781 64.0578L91.4768 63.9968C91.4743 63.8492 91.4697 63.7045 91.4634 63.5606C91.463 63.5493 91.4621 63.532 91.4617 63.5148L91.46 63.4769L91.4613 63.4399C91.4743 63.0113 91.4806 62.5781 91.4806 62.1533C91.4806 58.7858 89.6181 55.388 85.4578 55.388H85.3531L85.2765 55.3762C84.5223 55.2618 83.6331 55.3691 82.7843 55.5016L82.7326 55.5096L82.6804 55.5125C80.863 55.6093 78.865 56.5847 77.9047 57.0532C77.4442 57.2779 77.2343 57.3805 77.008 57.42L76.8305 57.4511L76.6526 57.42C76.4267 57.3805 76.2164 57.2779 75.7558 57.0532C74.7955 56.5847 72.7976 55.6093 70.9801 55.5125L70.9275 55.5096L70.8758 55.5016C70.0274 55.3691 69.1378 55.2618 68.3836 55.3762L68.3071 55.388H68.2027C66.1871 55.388 64.6792 55.8768 63.721 56.8404C62.8415 57.725 62.3961 59.0394 62.3961 60.7475C62.3961 61.315 61.9364 61.7747 61.3689 61.7747C60.8015 61.7747 60.3418 61.315 60.3418 60.7475C60.3418 58.4775 60.9887 56.6755 62.2644 55.3922C63.6138 54.0349 65.5962 53.3421 68.1561 53.3341C69.1441 53.1983 70.1729 53.3144 71.1433 53.4645C73.36 53.5979 75.5838 54.6835 76.6572 55.2071C76.7144 55.2349 76.7737 55.2639 76.8305 55.2917C76.8873 55.2643 76.9466 55.2353 77.0038 55.2071C78.0772 54.6835 80.301 53.5979 82.5177 53.4645C83.488 53.3144 84.5173 53.1983 85.5053 53.3341C88.0131 53.3463 90.1132 54.3302 91.5812 56.1813C92.8413 57.7704 93.5354 59.8912 93.5354 62.1537C93.5354 62.5886 93.529 63.0315 93.516 63.4706C93.5232 63.6338 93.5286 63.7966 93.5312 63.9602L93.5328 64.0296C93.5379 64.3897 93.5324 64.7657 93.5164 65.1472L93.5097 65.2927C93.5034 65.4269 93.4958 65.5624 93.4866 65.6982L93.4748 65.8741C93.4651 66.0095 93.4542 66.1432 93.442 66.2778L93.4378 66.3262C93.4348 66.3632 93.4315 66.4002 93.4281 66.4373C93.4121 66.6097 93.394 66.7838 93.3743 66.9588C93.368 67.0148 93.3608 67.0716 93.3541 67.1283L93.3457 67.1977C93.3339 67.2966 93.3217 67.395 93.3091 67.4938C93.296 67.5927 93.2826 67.692 93.2687 67.7912C93.2582 67.8657 93.2477 67.9401 93.2367 68.0142L93.2258 68.0924C93.2212 68.1265 93.2161 68.1605 93.2111 68.1946C92.8275 72.1842 92.5562 73.6319 91.6577 77.5992C91.5496 78.0754 91.1261 78.3988 90.6566 78.3988Z" fill="white"/>
<path d="M83.2495 95.3407C83.2373 95.3407 83.2251 95.3407 83.2129 95.3403C83.1868 95.3399 83.1548 95.3386 83.1233 95.3365C83.0749 95.3336 83.0248 95.3289 82.9748 95.3222C82.9462 95.3193 82.918 95.3155 82.8898 95.3104L82.8284 95.2978C82.7746 95.2869 82.7199 95.2734 82.6661 95.2579C82.6421 95.2516 82.6194 95.2448 82.5971 95.2377C82.5083 95.2091 82.4242 95.1758 82.3422 95.1367C82.3228 95.1275 82.3043 95.1182 82.2862 95.1085C82.2257 95.0778 82.1638 95.0429 82.105 95.0059C82.0822 94.9916 82.0566 94.9744 82.0305 94.9563C81.9804 94.9218 81.9329 94.8869 81.8854 94.849C81.8589 94.828 81.8328 94.8061 81.8067 94.7838C81.7617 94.7447 81.7188 94.7043 81.6763 94.6623C81.6515 94.6383 81.6318 94.6185 81.6124 94.5979C81.564 94.5466 81.5182 94.4944 81.4707 94.4368C81.4589 94.4229 81.4475 94.4095 81.4362 94.3952C81.384 94.3296 81.3327 94.2589 81.278 94.1777C81.2616 94.1529 81.2486 94.1327 81.236 94.1125L81.2284 94.1003C81.1994 94.0553 81.1691 94.0061 81.1388 93.9544C81.1283 93.938 81.1186 93.9216 81.1089 93.9043C81.0967 93.8829 81.0866 93.8631 81.077 93.8437C80.9823 93.6696 80.8969 93.4892 80.8216 93.3028C80.4292 92.3375 80.0771 89.7023 80.0771 89.1719C80.0771 87.3073 78.7556 84.7222 76.5418 82.257C74.318 79.7799 72.2351 78.5627 71.5276 78.5202C70.9615 78.4861 70.5299 77.9995 70.5644 77.4329C70.5985 76.8667 71.0831 76.4356 71.6517 76.4697C73.5672 76.5853 76.3067 78.9202 78.0708 80.8845C79.2919 82.2443 82.1319 85.7742 82.1319 89.1719C82.1352 89.5505 82.4646 91.8879 82.7254 92.5297C82.775 92.6517 82.828 92.7632 82.8873 92.8713C82.8915 92.8788 82.8961 92.8873 82.9008 92.8965C82.9037 92.9016 82.9067 92.9066 82.91 92.9121C82.9264 92.9407 82.9428 92.9672 82.9592 92.9924L82.9861 93.0349C83.0026 93.0589 83.0206 93.0841 83.0366 93.1056C83.0446 93.1144 83.0522 93.1236 83.0598 93.1333C83.0707 93.1464 83.0846 93.1632 83.0993 93.1792L83.1216 93.2006C83.1338 93.2128 83.1439 93.2221 83.1536 93.2309L83.1679 93.2427C83.1742 93.2477 83.1813 93.2528 83.1885 93.2578L83.2061 93.27C83.2112 93.273 83.2154 93.2751 83.2192 93.2772L83.2246 93.2801C83.2288 93.2814 83.2326 93.2822 83.2364 93.2835C83.2394 93.2839 83.2419 93.2843 83.2448 93.2847L83.265 93.2843C83.2772 93.2839 83.2898 93.2831 83.302 93.2831L83.3487 93.2822C85.3315 93.2822 87.0603 89.8832 88.6443 82.8904C88.7697 82.3373 89.3202 81.9899 89.8729 82.1156C90.4261 82.241 90.7731 82.7911 90.6477 83.3443C89.7489 87.312 88.7983 90.1646 87.7417 92.0649C86.5362 94.2324 85.064 95.3332 83.3664 95.3369C83.3618 95.3369 83.3571 95.3369 83.3529 95.3369C83.3201 95.3399 83.2852 95.3407 83.2495 95.3407ZM82.796 95.2898C82.7986 95.2902 82.8011 95.2911 82.8036 95.2919L82.796 95.2898ZM83.2705 93.3058L83.2755 93.3087C83.2739 93.3079 83.2722 93.3066 83.2705 93.3058ZM83.3226 93.3041L83.3285 93.3058C83.3264 93.3049 83.3243 93.3045 83.3226 93.3041ZM83.1965 93.2658C83.1973 93.2662 83.1977 93.2667 83.1986 93.2671L83.1965 93.2658Z" fill="white"/>
<path d="M97.3774 82.5787C97.3437 82.5787 97.3101 82.5771 97.276 82.5737C96.9534 82.5421 89.2556 81.7493 79.2685 77.4459C73.4063 74.9201 67.9803 71.7015 63.1415 67.8802C57.0884 63.0999 51.9438 57.3584 47.8508 50.8161C47.55 50.3354 47.696 49.7015 48.1767 49.4007C48.6579 49.0996 49.2914 49.246 49.5925 49.7267C58.5627 64.0644 71.0862 71.6721 80.0125 75.5296C89.7187 79.7236 97.4009 80.5215 97.4771 80.5291C98.0411 80.585 98.4537 81.0876 98.3982 81.6517C98.3461 82.1825 97.8994 82.5787 97.3774 82.5787Z" fill="#4AD891"/>
<path d="M57.4489 57.2377C57.2319 57.2377 57.0132 57.1692 56.8273 57.0274C52.5003 53.7306 50.2955 48.8376 50.2038 48.6306C49.9737 48.112 50.2076 47.505 50.7258 47.275C51.2435 47.0453 51.8505 47.2783 52.081 47.7961C52.1016 47.842 54.1753 52.4238 58.0723 55.3929C58.5236 55.7366 58.6107 56.3814 58.2666 56.8327C58.0647 57.0985 57.7585 57.2377 57.4489 57.2377Z" fill="#4AD891"/>
<path d="M59.7009 55.0033C59.4838 55.0033 59.2651 54.9348 59.0792 54.793C54.7523 51.4962 52.5474 46.6032 52.4557 46.3962C52.2256 45.8776 52.4595 45.2707 52.9781 45.0406C53.4955 44.8109 54.1029 45.0439 54.3334 45.5617C54.354 45.6076 56.4276 50.1894 60.3247 53.1585C60.776 53.5022 60.863 54.147 60.519 54.5983C60.3167 54.8637 60.0104 55.0033 59.7009 55.0033Z" fill="#83D4F7"/>
</g>
<path opacity="0.8" d="M145.507 82.3945V60.8211H153.625C157.205 60.8211 159.846 61.7267 161.55 63.538C163.275 65.3492 164.137 68.0338 164.137 71.5916C164.137 75.1495 163.275 77.8448 161.55 79.6776C159.846 81.4889 157.205 82.3945 153.625 82.3945H145.507ZM149.906 78.869H153.14C155.318 78.869 156.946 78.2976 158.024 77.1548C159.102 75.9904 159.641 74.136 159.641 71.5916C159.641 69.0688 159.102 67.2252 158.024 66.0608C156.946 64.8964 155.318 64.3142 153.14 64.3142H149.906V78.869ZM168.091 82.3945V60.8211H182.549V64.3466H172.49V69.8127H181.223V73.3705H172.49V78.869H182.549V82.3945H168.091ZM187.137 82.3945V60.8211H191.083L202.856 76.9284L201.595 79.5159V60.8211H205.67V82.3945H202.112L190.048 66.2225L191.245 64.2495V82.3945H187.137ZM215.33 82.3945V64.3466H208.797V60.8211H226.295V64.3466H219.729V82.3945H215.33ZM225.563 82.3945L233.843 60.8211H238.598L246.49 82.3945H241.962L234.911 62.3089L236.851 62.1472L229.8 82.3945H225.563ZM229.93 77.1225L230.965 73.7587H241.024L241.38 77.1225H229.93ZM249.393 82.3945V60.8211H253.792V78.8367H263.625V82.3945H249.393ZM267.018 82.3945V60.8211H271.417V78.8367H281.25V82.3945H267.018Z" fill="white"/>
<defs>
<filter id="filter0_d_106_698" x="23.8194" y="21.0782" width="102.844" height="102.843" filterUnits="userSpaceOnUse" color-interpolation-filters="sRGB">
<feFlood flood-opacity="0" result="BackgroundImageFix"/>
<feColorMatrix in="SourceAlpha" type="matrix" values="0 0 0 0 0 0 0 0 0 0 0 0 0 0 0 0 0 0 127 0" result="hardAlpha"/>
<feOffset/>
<feGaussianBlur stdDeviation="1.79537"/>
<feComposite in2="hardAlpha" operator="out"/>
<feColorMatrix type="matrix" values="0 0 0 0 1 0 0 0 0 1 0 0 0 0 1 0 0 0 1 0"/>
<feBlend mode="normal" in2="BackgroundImageFix" result="effect1_dropShadow_106_698"/>
<feBlend mode="normal" in="SourceGraphic" in2="effect1_dropShadow_106_698" result="shape"/>
</filter>
<filter id="filter1_d_106_698" x="45.3371" y="42.5949" width="55.4235" height="55.1037" filterUnits="userSpaceOnUse" color-interpolation-filters="sRGB">
<feFlood flood-opacity="0" result="BackgroundImageFix"/>
<feColorMatrix in="SourceAlpha" type="matrix" values="0 0 0 0 0 0 0 0 0 0 0 0 0 0 0 0 0 0 127 0" result="hardAlpha"/>
<feOffset/>
<feGaussianBlur stdDeviation="1.17864"/>
<feComposite in2="hardAlpha" operator="out"/>
<feColorMatrix type="matrix" values="0 0 0 0 1 0 0 0 0 1 0 0 0 0 1 0 0 0 1 0"/>
<feBlend mode="normal" in2="BackgroundImageFix" result="effect1_dropShadow_106_698"/>
<feBlend mode="normal" in="SourceGraphic" in2="effect1_dropShadow_106_698" result="shape"/>
</filter>
</defs>
</svg>
