<svg width="33" height="32" viewBox="0 0 33 32" fill="none" xmlns="http://www.w3.org/2000/svg">
<path d="M29.2075 7.29231L25.2075 3.29231C25.1146 3.19933 25.0043 3.12557 24.8829 3.07525C24.7615 3.02493 24.6314 2.99902 24.5 2.99902C24.3686 2.99902 24.2385 3.02493 24.1171 3.07525C23.9957 3.12557 23.8854 3.19933 23.7925 3.29231L11.7925 15.2923C11.6997 15.3852 11.6261 15.4956 11.5759 15.617C11.5257 15.7384 11.4999 15.8684 11.5 15.9998V19.9998C11.5 20.265 11.6054 20.5194 11.7929 20.7069C11.9804 20.8945 12.2348 20.9998 12.5 20.9998H16.5C16.6314 20.9999 16.7615 20.9741 16.8829 20.9239C17.0042 20.8738 17.1146 20.8001 17.2075 20.7073L29.2075 8.70731C29.3005 8.61444 29.3742 8.50415 29.4246 8.38275C29.4749 8.26135 29.5008 8.13123 29.5008 7.99981C29.5008 7.86839 29.4749 7.73827 29.4246 7.61687C29.3742 7.49547 29.3005 7.38518 29.2075 7.29231ZM16.0863 18.9998H13.5V16.4136L21.5 8.41356L24.0863 10.9998L16.0863 18.9998ZM25.5 9.58606L22.9137 6.99981L24.5 5.41356L27.0863 7.99981L25.5 9.58606ZM28.5 14.9998V25.9998C28.5 26.5302 28.2893 27.0389 27.9142 27.414C27.5391 27.7891 27.0304 27.9998 26.5 27.9998H6.5C5.96957 27.9998 5.46086 27.7891 5.08579 27.414C4.71071 27.0389 4.5 26.5302 4.5 25.9998V5.99981C4.5 5.46938 4.71071 4.96067 5.08579 4.5856C5.46086 4.21052 5.96957 3.99981 6.5 3.99981H17.5C17.7652 3.99981 18.0196 4.10517 18.2071 4.2927C18.3946 4.48024 18.5 4.73459 18.5 4.99981C18.5 5.26503 18.3946 5.51938 18.2071 5.70692C18.0196 5.89445 17.7652 5.99981 17.5 5.99981H6.5V25.9998H26.5V14.9998C26.5 14.7346 26.6054 14.4802 26.7929 14.2927C26.9804 14.1052 27.2348 13.9998 27.5 13.9998C27.7652 13.9998 28.0196 14.1052 28.2071 14.2927C28.3946 14.4802 28.5 14.7346 28.5 14.9998Z" fill="#BBBBBB"/>
</svg>
