<svg xmlns="http://www.w3.org/2000/svg" width="24" height="24" viewBox="0 0 24 24" fill="none">
  <path d="M11.8541 1C12.5731 1 13.1541 1.61445 13.1541 2.375V3.90898C13.2191 3.91758 13.28 3.92617 13.345 3.93906C13.7756 4.00781 15.0553 4.22695 15.5834 4.36875C16.2781 4.55352 16.7006 5.30117 16.5259 6.04023C16.3513 6.7793 15.6444 7.22188 14.9456 7.03711C14.5678 6.93398 13.4181 6.73633 12.9591 6.66328C11.655 6.45703 10.5378 6.56016 9.77001 6.87383C9.02657 7.17461 8.71782 7.6 8.63657 8.07695C8.55938 8.53672 8.61626 8.79883 8.68938 8.96211C8.76657 9.13398 8.91688 9.32734 9.21344 9.53789C9.87157 10.002 10.8831 10.307 12.1913 10.6852L12.305 10.7195C13.4588 11.0504 14.8725 11.4586 15.9206 12.1934C16.4934 12.5973 17.0297 13.143 17.3628 13.8992C17.7 14.6641 17.7731 15.5234 17.6188 16.4387C17.3384 18.0715 16.2741 19.1629 14.9538 19.7344C14.3972 19.975 13.7919 20.1297 13.15 20.207V21.625C13.15 22.3855 12.5691 23 11.85 23C11.1309 23 10.55 22.3855 10.55 21.625V20.1254C10.5338 20.1211 10.5134 20.1211 10.4972 20.1168H10.4891C9.49782 19.9535 7.86876 19.5023 6.77188 18.9867C6.11376 18.6773 5.82126 17.8652 6.11376 17.1734C6.40626 16.4816 7.17407 16.168 7.82813 16.4773C8.67719 16.877 10.0747 17.268 10.8831 17.4055C12.1791 17.6074 13.2475 17.4914 13.9706 17.1777C14.6572 16.8813 14.97 16.4516 15.0594 15.9359C15.1366 15.4762 15.0797 15.2141 15.0066 15.0508C14.9294 14.8789 14.7791 14.6855 14.4825 14.475C13.8244 14.0109 12.8128 13.7059 11.5047 13.3277L11.3909 13.2934C10.2372 12.9625 8.82344 12.5543 7.77532 11.8195C7.20251 11.4156 6.66626 10.8699 6.33313 10.1137C5.99594 9.34883 5.92282 8.48945 6.07719 7.57422C6.36969 5.90273 7.50719 4.83711 8.84782 4.2957C9.37594 4.08086 9.95282 3.94336 10.5541 3.86602V2.375C10.5541 1.61445 11.135 1 11.8541 1Z" fill="#F4F3FA"/>
</svg>