<svg width="44" height="44" viewBox="0 0 44 44" fill="none" xmlns="http://www.w3.org/2000/svg">
<rect width="44" height="44" rx="10" fill="#00B18D"/>
<path d="M37.1974 6.80608C35.4807 5.08941 33.1524 4.125 30.7246 4.125C28.2968 4.125 25.9685 5.08941 24.2518 6.80608L6.80649 24.2497C5.1257 25.9737 4.19184 28.2905 4.20722 30.6983C4.22259 33.106 5.18596 35.4107 6.88862 37.1131C8.59129 38.8156 10.8961 39.7786 13.3039 39.7937C15.7116 39.8088 18.0283 38.8746 19.7521 37.1936L37.1991 19.75C38.913 18.032 39.8753 15.7043 39.875 13.2777C39.8746 10.851 38.9117 8.5236 37.1974 6.80608ZM17.8082 35.2497C16.6073 36.4508 14.9784 37.1257 13.2799 37.1259C11.5814 37.126 9.9524 36.4514 8.75126 35.2505C7.55012 34.0496 6.87523 32.4207 6.87507 30.7222C6.87491 29.0237 7.54948 27.3947 8.7504 26.1936L16.5002 18.4437L25.5581 27.4998L17.8082 35.2497ZM35.2535 17.8061L27.5002 25.5559L18.4459 16.4998L26.1974 8.74998C27.4031 7.57216 29.0245 6.91714 30.71 6.92699C32.3955 6.93684 34.0091 7.61076 35.2009 8.80259C36.3927 9.99441 37.0667 11.6081 37.0765 13.2935C37.0864 14.979 36.4313 16.6004 35.2535 17.8061ZM32.6015 14.152C32.7293 14.2797 32.8308 14.4314 32.8999 14.5983C32.9691 14.7652 33.0048 14.9441 33.0048 15.1248C33.0048 15.3055 32.9691 15.4844 32.8999 15.6514C32.8308 15.8183 32.7293 15.9699 32.6015 16.0976L28.4765 20.2226C28.3487 20.3503 28.1971 20.4515 28.0302 20.5205C27.8634 20.5896 27.6845 20.6251 27.5039 20.625C27.3233 20.6249 27.1445 20.5893 26.9777 20.5201C26.8109 20.4509 26.6594 20.3495 26.5317 20.2218C26.4041 20.094 26.3029 19.9424 26.2338 19.7755C26.1648 19.6086 26.1293 19.4298 26.1294 19.2492C26.1295 19.0686 26.1651 18.8898 26.2343 18.723C26.3035 18.5562 26.4048 18.4046 26.5326 18.277L30.6576 14.152C30.9154 13.8943 31.265 13.7496 31.6295 13.7496C31.9941 13.7496 32.3437 13.8943 32.6015 14.152Z" fill="#231F20"/>
</svg>
