<svg width="24" height="24" viewBox="0 0 24 24" fill="none" xmlns="http://www.w3.org/2000/svg">
<path d="M9.8125 9.50224C9.9887 9.00136 10.3365 8.579 10.7942 8.30998C11.252 8.04095 11.7902 7.9426 12.3135 8.03237C12.8368 8.12213 13.3115 8.39421 13.6534 8.80041C13.9954 9.20661 14.1825 9.72072 14.1817 10.2517C14.1817 11.7506 11.9334 12.5 11.9334 12.5M11.9609 15.5H11.9709M21.0039 12C21.0039 16.9706 16.9745 21 12.0039 21C9.9675 21 3.00463 21 3.00463 21C3.00463 21 4.56382 17.2561 3.93982 16.0008C3.34076 14.7956 3.00391 13.4372 3.00391 12C3.00391 7.02944 7.03334 3 12.0039 3C16.9745 3 21.0039 7.02944 21.0039 12Z" stroke="#ECEDF6" stroke-width="2" stroke-linecap="round" stroke-linejoin="round"/>
</svg>
