<svg width="485" height="579" viewBox="0 0 485 579" fill="none" xmlns="http://www.w3.org/2000/svg">
<path d="M406.813 560.786C406.813 562.688 324.692 564.22 223.415 564.22C122.103 564.22 40 562.674 40 560.786C40 558.897 122.103 557.352 223.415 557.352C324.692 557.338 406.813 558.884 406.813 560.786Z" fill="#263238"/>
<path d="M61.7817 479.01V484.754V487.2V564.233H66.6947V487.2H378.01V567.41H382.99V487.2V484.754V479.01H61.7817Z" fill="#E0E0E0"/>
<path d="M61.7818 479.01C64.0338 479.008 195.423 478.908 382.989 478.765H383.234V479.01C383.238 507.217 383.242 536.835 383.246 567.411V567.668H382.989C381.436 567.668 379.724 567.668 378.009 567.668H377.751V567.41C377.75 544.298 377.749 520.054 377.748 495.381C377.748 492.622 377.748 489.869 377.748 487.2L378.008 487.46C258.746 487.435 150.009 487.413 66.6938 487.396L66.8898 487.2C66.8728 516.175 66.8568 542.041 66.8438 564.232V564.383H66.6928C64.8218 564.382 63.2918 564.381 61.7798 564.379H61.6328V564.232C61.6618 537.308 61.6858 516.003 61.7018 501.425C61.7188 494.142 61.7318 488.539 61.7398 484.752C61.7678 481.027 61.7798 479.278 61.7818 479.01C61.7838 479.553 61.8098 486.914 61.8598 501.426C61.8758 516.005 61.8988 537.309 61.9288 564.233L61.7818 564.086C63.2938 564.085 64.8238 564.084 66.6948 564.082L66.5438 564.233C66.5308 542.042 66.5158 516.176 66.4978 487.201V487.005H66.6938C150.009 486.988 258.747 486.965 378.008 486.941H378.268V487.201C378.268 489.87 378.268 492.623 378.268 495.382C378.267 520.055 378.266 544.299 378.265 567.411L378.008 567.154C379.723 567.154 381.435 567.154 382.988 567.154L382.731 567.411C382.735 536.835 382.739 507.218 382.743 479.01L382.988 479.255C195.424 479.112 64.0328 479.011 61.7818 479.01Z" fill="#263238"/>
<path d="M345.545 440.409H327.486V476.146H345.545V440.409Z" fill="#E0E0E0"/>
<path d="M345.545 476.146C345.54 476.141 345.535 476.078 345.53 475.959C345.526 475.816 345.521 475.646 345.515 475.437C345.507 474.947 345.497 474.284 345.484 473.442C345.468 471.675 345.445 469.165 345.417 466.021C345.388 459.678 345.347 450.785 345.299 440.409L345.544 440.654C339.961 440.659 333.854 440.664 327.488 440.669C327.426 440.724 327.98 440.181 327.746 440.416V440.426V440.446V440.486V440.567V440.728V441.05V441.693V442.974C327.746 443.826 327.745 444.672 327.745 445.512C327.744 447.193 327.743 448.852 327.742 450.483C327.737 453.746 327.733 456.902 327.729 459.923C327.711 465.955 327.694 471.441 327.68 476.143L327.486 475.949C333 475.993 337.483 476.028 340.632 476.053C342.172 476.074 343.384 476.09 344.251 476.102C344.644 476.111 344.959 476.118 345.205 476.123C345.423 476.132 345.538 476.139 345.545 476.146C345.552 476.153 345.45 476.16 345.246 476.166C345.008 476.171 344.706 476.178 344.327 476.187C343.47 476.199 342.273 476.215 340.751 476.236C337.574 476.261 333.05 476.296 327.486 476.34L327.293 476.341L327.292 476.145C327.278 471.443 327.261 465.957 327.243 459.925C327.239 456.905 327.234 453.748 327.23 450.485C327.229 448.853 327.228 447.195 327.227 445.514C327.227 444.673 327.227 443.827 327.226 442.976V441.695V441.052V440.73V440.569V440.488V440.448V440.428V440.418C326.994 440.648 327.54 440.092 327.489 440.15C333.855 440.155 339.962 440.16 345.545 440.165H345.791L345.79 440.41C345.742 450.852 345.701 459.802 345.672 466.186C345.644 469.306 345.621 471.798 345.605 473.552C345.592 474.372 345.582 475.019 345.575 475.496C345.564 475.934 345.555 476.156 345.545 476.146Z" fill="#263238"/>
<path d="M379.717 452.686H295.136C293.329 452.686 291.863 451.221 291.863 449.413V379.604C291.863 377.131 293.868 375.127 296.34 375.127H378.512C380.985 375.127 382.989 377.132 382.989 379.604V449.413C382.99 451.221 381.525 452.686 379.717 452.686Z" fill="#455A64"/>
<path d="M379.717 452.687C379.715 452.666 380.012 452.692 380.554 452.547C381.079 452.404 381.905 452.022 382.47 451.078C383.12 450.145 382.879 448.715 382.913 447.118C382.906 445.505 382.898 443.647 382.889 441.557C382.869 433.175 382.841 421.072 382.806 406.119C382.796 398.637 382.785 390.443 382.774 381.647C382.773 381.097 382.773 380.545 382.772 379.991C382.783 379.427 382.755 378.918 382.595 378.4C382.296 377.38 381.591 376.475 380.656 375.933C380.19 375.661 379.67 375.478 379.132 375.401C378.605 375.325 378.019 375.359 377.443 375.352C376.289 375.353 375.126 375.354 373.955 375.355C369.269 375.359 364.447 375.362 359.501 375.366C349.61 375.371 339.228 375.376 328.465 375.381C323.083 375.382 317.607 375.384 312.049 375.385C309.27 375.385 306.471 375.386 303.653 375.386C302.244 375.386 300.83 375.386 299.412 375.386H297.282C296.558 375.391 295.871 375.35 295.229 375.54C293.929 375.883 292.829 376.899 292.385 378.16C292.142 378.799 292.106 379.438 292.126 380.163V382.281C292.126 385.1 292.126 387.9 292.125 390.68C292.124 396.24 292.122 401.718 292.121 407.101C292.116 417.866 292.111 428.251 292.106 438.143C292.104 440.616 292.103 443.058 292.101 445.468C292.1 446.673 292.099 447.87 292.098 449.058C292.009 450.213 292.507 451.308 293.427 451.93C293.88 452.23 294.407 452.424 294.949 452.449C295.502 452.469 296.102 452.456 296.673 452.461C297.827 452.462 298.973 452.463 300.109 452.464C302.382 452.466 304.619 452.469 306.818 452.471C315.614 452.482 323.809 452.493 331.291 452.503C346.244 452.538 358.346 452.566 366.727 452.586C370.901 452.607 374.144 452.624 376.361 452.635C377.452 452.646 378.288 452.655 378.866 452.661C379.428 452.669 379.717 452.687 379.717 452.687C379.717 452.687 379.428 452.705 378.863 452.714C378.284 452.72 377.449 452.729 376.358 452.74C374.141 452.751 370.897 452.768 366.724 452.789C358.343 452.809 346.241 452.837 331.288 452.872C323.806 452.882 315.612 452.892 306.815 452.904C304.616 452.906 302.379 452.908 300.106 452.911C298.97 452.912 297.824 452.913 296.67 452.914C296.087 452.91 295.527 452.926 294.918 452.905C294.296 452.876 293.687 452.656 293.166 452.31C292.108 451.623 291.529 450.281 291.631 449.06C291.63 447.871 291.629 446.675 291.628 445.47C291.626 443.06 291.624 440.618 291.623 438.145C291.618 428.252 291.613 417.868 291.608 407.103C291.607 401.72 291.605 396.242 291.604 390.682C291.604 387.902 291.603 385.102 291.603 382.283V380.165C291.581 379.481 291.62 378.677 291.894 377.984C292.395 376.566 293.628 375.428 295.09 375.04C295.828 374.826 296.588 374.873 297.281 374.868H299.411C300.829 374.868 302.243 374.868 303.652 374.868C306.47 374.868 309.269 374.869 312.048 374.869C317.606 374.87 323.083 374.872 328.464 374.873C339.227 374.878 349.609 374.883 359.5 374.888C364.445 374.892 369.268 374.895 373.954 374.899C375.125 374.9 376.288 374.901 377.442 374.902C378.018 374.912 378.589 374.874 379.196 374.959C379.791 375.046 380.366 375.249 380.88 375.55C381.912 376.151 382.687 377.15 383.015 378.278C383.191 378.833 383.22 379.45 383.206 379.993C383.205 380.548 383.205 381.1 383.204 381.649C383.192 390.445 383.182 398.639 383.172 406.121C383.137 421.074 383.109 433.177 383.089 441.559C383.08 443.649 383.072 445.507 383.065 447.12C383.061 447.924 383.056 448.668 383.053 449.348C383.054 450.04 382.857 450.663 382.558 451.134C381.959 452.099 381.103 452.471 380.566 452.6C380.012 452.728 379.717 452.687 379.717 452.687Z" fill="#263238"/>
<path d="M386.557 467.31C385.254 467.018 383.654 467.155 382.389 467.546C356.147 475.647 324.714 476.657 295.236 469.146C292.807 468.527 288.943 467.214 286.607 468.122C284.271 469.03 283.376 471.98 284.76 474.071C284.76 474.071 290.666 478.236 306.353 479.961C323.492 482.349 343.538 481.995 365.15 480.164C366.703 480.032 368.251 479.802 369.774 479.473C376.143 478.096 383.033 476.397 386.948 473.376C388.453 472.215 390.046 470.574 387.842 468.094C387.504 467.714 387.053 467.421 386.557 467.31Z" fill="#455A64"/>
<path d="M386.557 467.31C386.557 467.31 386.757 467.319 387.103 467.482C387.458 467.633 387.895 468.021 388.324 468.624C388.739 469.201 389.235 470.149 388.863 471.24C388.481 472.305 387.467 473.15 386.329 473.945C384.007 475.547 380.77 476.803 376.956 477.891C375.043 478.43 372.979 478.932 370.783 479.422C368.597 479.952 366.212 480.305 363.723 480.464C353.773 481.283 341.885 482.056 328.669 481.833C322.066 481.715 315.125 481.338 307.991 480.427C304.428 479.986 300.783 479.553 297.146 478.744C293.512 477.958 289.855 476.909 286.377 475.263C285.759 474.959 285.162 474.645 284.611 474.282L284.575 474.258L284.544 474.213C283.401 472.529 283.716 470.117 285.161 468.751C285.864 468.053 286.849 467.666 287.8 467.592C288.756 467.494 289.694 467.598 290.607 467.75C292.437 468.054 294.168 468.634 295.909 469.039C297.657 469.449 299.39 469.855 301.108 470.258C308.007 471.758 314.757 472.718 321.207 473.303C327.659 473.878 333.817 474.088 339.572 473.987C345.326 473.849 350.678 473.5 355.537 472.935C365.262 471.837 372.987 470.027 378.263 468.63C379.575 468.261 380.742 467.933 381.758 467.647C382.762 467.339 383.653 467.156 384.375 467.125C385.822 467.045 386.557 467.31 386.557 467.31C386.554 467.322 386.37 467.281 386.005 467.241C385.641 467.203 385.093 467.17 384.38 467.231C383.662 467.28 382.803 467.472 381.8 467.796C380.787 468.095 379.623 468.439 378.314 468.826C373.048 470.284 365.319 472.152 355.577 473.3C350.71 473.89 345.346 474.261 339.578 474.418C333.808 474.538 327.634 474.344 321.162 473.78C314.692 473.207 307.921 472.254 300.999 470.757C299.275 470.355 297.536 469.948 295.782 469.539C294.022 469.13 292.299 468.555 290.519 468.262C288.788 467.971 286.791 467.86 285.52 469.128C284.254 470.322 283.974 472.462 284.977 473.929L284.91 473.86C285.404 474.184 286.006 474.505 286.605 474.798C290.018 476.414 293.649 477.459 297.255 478.24C300.865 479.045 304.488 479.478 308.051 479.922C315.167 480.837 322.086 481.223 328.677 481.354C341.867 481.603 353.745 480.87 363.692 480.098C366.187 479.949 368.521 479.616 370.711 479.1C372.907 478.624 374.968 478.136 376.877 477.612C380.684 476.555 383.908 475.334 386.215 473.778C387.352 473.006 388.348 472.184 388.717 471.189C389.082 470.176 388.634 469.263 388.238 468.684C387.438 467.413 386.514 467.339 386.557 467.31Z" fill="#263238"/>
<path d="M234.386 440.409H216.327V476.146H234.386V440.409Z" fill="#E0E0E0"/>
<path d="M234.384 476.146C234.379 476.141 234.374 476.078 234.369 475.959C234.365 475.816 234.36 475.646 234.354 475.437C234.347 474.947 234.336 474.284 234.324 473.442C234.308 471.675 234.285 469.165 234.257 466.021C234.228 459.678 234.187 450.785 234.139 440.409L234.384 440.654C228.801 440.659 222.694 440.664 216.328 440.669C216.266 440.724 216.82 440.181 216.586 440.416V440.426V440.446V440.486V440.567V440.728V441.05V441.693V442.974C216.586 443.826 216.586 444.672 216.585 445.512C216.584 447.193 216.583 448.852 216.582 450.483C216.577 453.746 216.573 456.902 216.569 459.923C216.551 465.955 216.535 471.441 216.52 476.143L216.326 475.949C221.84 475.993 226.323 476.028 229.472 476.053C231.012 476.074 232.224 476.09 233.091 476.102C233.484 476.111 233.798 476.118 234.045 476.123C234.262 476.132 234.377 476.139 234.384 476.146C234.391 476.153 234.289 476.16 234.085 476.166C233.847 476.171 233.545 476.178 233.166 476.187C232.309 476.199 231.112 476.215 229.59 476.236C226.413 476.261 221.889 476.296 216.325 476.34L216.132 476.341L216.131 476.145C216.117 471.443 216.1 465.957 216.082 459.925C216.078 456.905 216.073 453.748 216.069 450.485C216.068 448.853 216.067 447.195 216.065 445.514C216.065 444.673 216.065 443.827 216.064 442.976V441.695V441.052V440.73V440.569V440.488V440.448V440.428V440.418C215.832 440.648 216.379 440.092 216.327 440.15C222.693 440.155 228.8 440.16 234.383 440.165H234.629L234.628 440.41C234.58 450.852 234.539 459.802 234.51 466.186C234.482 469.306 234.459 471.798 234.443 473.552C234.43 474.372 234.42 475.019 234.413 475.496C234.404 475.934 234.394 476.156 234.384 476.146Z" fill="#263238"/>
<path d="M269.021 452.687H183.512C181.961 452.687 180.703 451.43 180.703 449.878V379.141C180.703 376.925 182.5 375.128 184.716 375.128H267.816C270.032 375.128 271.829 376.925 271.829 379.141V449.878C271.829 451.43 270.572 452.687 269.021 452.687Z" fill="#455A64"/>
<path d="M269.021 452.688C269.018 452.667 269.318 452.697 269.856 452.533C270.37 452.364 271.184 451.908 271.587 450.878C271.807 450.372 271.768 449.753 271.764 449.07C271.76 448.388 271.756 447.643 271.752 446.836C271.745 445.219 271.737 443.357 271.728 441.262C271.708 432.86 271.68 420.728 271.645 405.739C271.635 398.239 271.625 390.025 271.613 381.208C271.612 380.657 271.612 380.103 271.611 379.548C271.624 378.98 271.596 378.475 271.42 377.963C271.092 376.955 270.314 376.094 269.325 375.665C268.831 375.445 268.294 375.349 267.744 375.352C267.17 375.353 266.594 375.353 266.015 375.354C264.858 375.355 263.692 375.356 262.518 375.357C257.821 375.361 252.987 375.364 248.029 375.368C238.114 375.373 227.707 375.378 216.918 375.383C211.523 375.384 206.034 375.386 200.462 375.387C197.676 375.387 194.87 375.388 192.045 375.388C190.633 375.388 189.216 375.388 187.794 375.388H185.658C184.931 375.392 184.245 375.349 183.61 375.553C182.325 375.942 181.305 377.064 181.039 378.372C180.912 379.009 180.976 379.735 180.96 380.443V382.566C180.96 385.392 180.959 388.199 180.959 390.985C180.958 396.558 180.956 402.049 180.955 407.445C180.95 418.236 180.945 428.646 180.94 438.562C180.938 441.041 180.936 443.489 180.935 445.905C180.934 447.113 180.933 448.313 180.932 449.504C180.815 450.661 181.41 451.746 182.411 452.209C182.908 452.458 183.427 452.471 184.028 452.458C184.611 452.458 185.192 452.459 185.77 452.46C186.927 452.461 188.075 452.462 189.214 452.463C191.492 452.465 193.735 452.468 195.939 452.47C204.757 452.481 212.971 452.492 220.471 452.502C235.46 452.537 247.591 452.565 255.992 452.585C260.176 452.606 263.427 452.623 265.649 452.634C266.743 452.645 267.58 452.654 268.16 452.66C268.731 452.67 269.021 452.688 269.021 452.688C269.021 452.688 268.731 452.706 268.165 452.715C267.585 452.721 266.747 452.73 265.654 452.741C263.432 452.752 260.18 452.769 255.997 452.79C247.596 452.81 235.465 452.838 220.476 452.873C212.976 452.883 204.762 452.893 195.944 452.905C193.739 452.907 191.497 452.909 189.219 452.912C188.08 452.913 186.932 452.914 185.775 452.915C185.196 452.916 184.616 452.916 184.033 452.917C183.477 452.933 182.786 452.92 182.221 452.627C181.642 452.363 181.162 451.898 180.848 451.342C180.529 450.792 180.444 450.089 180.473 449.508C180.472 448.317 180.471 447.117 180.47 445.909C180.468 443.493 180.466 441.045 180.465 438.566C180.46 428.65 180.455 418.24 180.45 407.449C180.449 402.053 180.447 396.562 180.446 390.989C180.446 388.202 180.445 385.395 180.445 382.57V380.447C180.464 379.742 180.389 379.035 180.535 378.27C180.838 376.778 181.997 375.503 183.462 375.059C184.204 374.824 184.971 374.876 185.663 374.871H187.799C189.22 374.871 190.638 374.871 192.05 374.871C194.875 374.871 197.681 374.872 200.467 374.872C206.038 374.873 211.528 374.875 216.923 374.876C227.712 374.881 238.119 374.886 248.034 374.891C252.991 374.895 257.825 374.898 262.523 374.902C263.697 374.903 264.863 374.904 266.02 374.905C266.598 374.906 267.175 374.906 267.749 374.907C268.346 374.904 268.96 375.014 269.508 375.26C270.613 375.741 271.478 376.703 271.842 377.83C272.037 378.382 272.067 379.011 272.051 379.551C272.05 380.107 272.05 380.66 272.049 381.211C272.038 390.028 272.027 398.242 272.017 405.742C271.982 420.731 271.954 432.863 271.934 441.265C271.925 443.36 271.917 445.222 271.91 446.839C271.905 447.645 271.901 448.39 271.898 449.073C271.894 449.745 271.925 450.395 271.688 450.919C271.252 451.982 270.404 452.431 269.875 452.586C269.318 452.734 269.021 452.688 269.021 452.688Z" fill="#263238"/>
<path d="M275.396 467.31C274.093 467.018 272.493 467.155 271.228 467.546C244.986 475.647 213.553 476.657 184.075 469.146C181.646 468.527 177.782 467.214 175.446 468.122C173.11 469.03 172.215 471.98 173.599 474.071C173.599 474.071 179.505 478.236 195.192 479.961C212.331 482.349 232.377 481.995 253.989 480.164C255.542 480.032 257.09 479.802 258.613 479.473C264.982 478.096 271.872 476.397 275.787 473.376C277.292 472.215 278.885 470.574 276.682 468.094C276.344 467.714 275.893 467.421 275.396 467.31Z" fill="#455A64"/>
<path d="M275.396 467.31C275.396 467.31 275.596 467.319 275.942 467.482C276.297 467.633 276.734 468.021 277.163 468.624C277.578 469.201 278.074 470.149 277.702 471.24C277.32 472.305 276.306 473.15 275.168 473.945C272.846 475.547 269.609 476.803 265.794 477.891C263.882 478.43 261.817 478.932 259.621 479.422C257.435 479.952 255.05 480.305 252.56 480.464C242.61 481.283 230.722 482.056 217.506 481.833C210.903 481.715 203.962 481.338 196.828 480.427C193.265 479.986 189.62 479.553 185.983 478.744C182.349 477.958 178.692 476.909 175.214 475.263C174.596 474.959 173.999 474.645 173.448 474.282L173.412 474.258L173.381 474.213C172.238 472.529 172.553 470.117 173.998 468.751C174.702 468.053 175.686 467.666 176.637 467.592C177.593 467.494 178.531 467.598 179.444 467.75C181.274 468.054 183.005 468.634 184.746 469.039C186.494 469.449 188.227 469.855 189.945 470.258C196.844 471.758 203.594 472.718 210.044 473.303C216.496 473.878 222.654 474.088 228.409 473.987C234.163 473.849 239.515 473.5 244.374 472.935C254.099 471.837 261.824 470.027 267.1 468.63C268.412 468.261 269.579 467.933 270.595 467.647C271.599 467.339 272.49 467.156 273.212 467.125C274.662 467.045 275.396 467.31 275.396 467.31C275.394 467.322 275.209 467.281 274.844 467.241C274.479 467.203 273.932 467.17 273.219 467.231C272.501 467.28 271.642 467.472 270.639 467.796C269.626 468.095 268.462 468.439 267.153 468.826C261.887 470.284 254.158 472.152 244.416 473.3C239.549 473.89 234.186 474.261 228.417 474.418C222.647 474.538 216.473 474.344 210.001 473.78C203.531 473.207 196.76 472.254 189.838 470.757C188.114 470.355 186.375 469.948 184.621 469.539C182.86 469.13 181.138 468.555 179.358 468.262C177.627 467.971 175.63 467.86 174.359 469.128C173.093 470.322 172.813 472.462 173.816 473.929L173.749 473.86C174.242 474.184 174.844 474.505 175.443 474.798C178.856 476.414 182.487 477.459 186.093 478.24C189.703 479.045 193.327 479.478 196.889 479.922C204.006 480.837 210.924 481.223 217.515 481.354C230.705 481.603 242.583 480.87 252.53 480.098C255.025 479.949 257.359 479.616 259.549 479.1C261.745 478.624 263.806 478.136 265.715 477.612C269.522 476.555 272.746 475.334 275.053 473.778C276.19 473.006 277.186 472.184 277.555 471.189C277.92 470.176 277.472 469.263 277.076 468.684C276.277 467.413 275.354 467.339 275.396 467.31Z" fill="#263238"/>
<path d="M123.224 440.409H105.165V476.146H123.224V440.409Z" fill="#E0E0E0"/>
<path d="M123.224 476.146C123.219 476.141 123.214 476.078 123.209 475.959C123.205 475.816 123.2 475.646 123.194 475.437C123.187 474.947 123.176 474.284 123.163 473.442C123.147 471.675 123.124 469.165 123.096 466.021C123.067 459.678 123.026 450.785 122.978 440.409L123.223 440.654C117.64 440.659 111.533 440.664 105.167 440.669C105.105 440.724 105.659 440.181 105.425 440.416V440.426V440.446V440.486V440.567V440.728V441.05V441.693V442.974C105.425 443.826 105.424 444.672 105.424 445.512C105.423 447.193 105.422 448.852 105.421 450.483C105.416 453.746 105.412 456.902 105.408 459.923C105.39 465.955 105.373 471.441 105.359 476.143L105.165 475.949C110.679 475.993 115.162 476.028 118.311 476.053C119.851 476.074 121.063 476.09 121.93 476.102C122.323 476.111 122.637 476.118 122.884 476.123C123.102 476.132 123.217 476.139 123.224 476.146C123.231 476.153 123.129 476.16 122.925 476.166C122.687 476.171 122.385 476.178 122.006 476.187C121.149 476.199 119.952 476.215 118.43 476.236C115.253 476.261 110.729 476.296 105.165 476.34L104.971 476.341L104.97 476.145C104.956 471.443 104.939 465.957 104.921 459.925C104.917 456.905 104.912 453.748 104.908 450.485C104.907 448.853 104.906 447.195 104.905 445.514C104.905 444.673 104.904 443.827 104.904 442.976V441.695V441.052V440.73V440.569V440.488V440.448V440.428V440.418C104.672 440.648 105.218 440.092 105.167 440.15C111.533 440.155 117.64 440.16 123.223 440.165H123.469L123.468 440.41C123.42 450.852 123.379 459.802 123.35 466.186C123.322 469.306 123.299 471.798 123.283 473.552C123.27 474.372 123.26 475.019 123.253 475.496C123.244 475.934 123.234 476.156 123.224 476.146Z" fill="#263238"/>
<path d="M157.74 452.687H72.471C70.854 452.687 69.542 451.376 69.542 449.758V379.261C69.542 376.978 71.393 375.128 73.675 375.128H156.535C158.818 375.128 160.668 376.979 160.668 379.261V449.758C160.669 451.376 159.358 452.687 157.74 452.687Z" fill="#455A64"/>
<path d="M157.74 452.688C157.738 452.667 158.036 452.696 158.576 452.538C159.089 452.371 159.914 451.946 160.363 450.935C160.604 450.437 160.627 449.827 160.603 449.143C160.599 448.461 160.595 447.717 160.591 446.911C160.584 445.295 160.576 443.434 160.567 441.34C160.547 432.943 160.519 420.818 160.484 405.839C160.474 398.344 160.464 390.135 160.452 381.323C160.451 380.772 160.451 380.219 160.45 379.664C160.462 379.097 160.435 378.591 160.264 378.077C159.944 377.065 159.184 376.192 158.209 375.733C157.723 375.502 157.187 375.373 156.644 375.359C156.072 375.358 155.499 375.356 154.923 375.355C153.767 375.356 152.602 375.357 151.428 375.358C146.734 375.362 141.903 375.365 136.949 375.369C127.04 375.374 116.639 375.379 105.857 375.384C100.466 375.385 94.9792 375.387 89.4112 375.388C86.6272 375.388 83.8232 375.389 81.0002 375.389C79.5892 375.389 78.1722 375.389 76.7522 375.389H74.6182C73.8922 375.393 73.2052 375.351 72.5682 375.552C71.2832 375.931 70.2272 377.017 69.9222 378.319C69.7452 378.951 69.8162 379.656 69.8012 380.373V382.494C69.8012 385.318 69.8002 388.123 69.8002 390.908C69.7992 396.478 69.7972 401.966 69.7962 407.358C69.7912 418.143 69.7862 428.546 69.7812 438.456C69.7792 440.934 69.7782 443.38 69.7762 445.794C69.7752 447.001 69.7742 448.2 69.7732 449.391C69.6672 450.545 70.2282 451.639 71.2112 452.147C71.7012 452.409 72.2152 452.482 72.8032 452.461C73.3862 452.461 73.9662 452.462 74.5442 452.463C75.7002 452.464 76.8482 452.465 77.9862 452.466C80.2632 452.468 82.5042 452.471 84.7072 452.473C93.5192 452.484 101.728 452.495 109.223 452.505C124.202 452.54 136.326 452.568 144.722 452.588C148.903 452.609 152.153 452.626 154.373 452.637C155.466 452.648 156.303 452.657 156.883 452.663C157.451 452.67 157.74 452.688 157.74 452.688C157.74 452.688 157.45 452.706 156.885 452.715C156.305 452.721 155.468 452.73 154.375 452.741C152.154 452.752 148.905 452.769 144.724 452.79C136.328 452.81 124.204 452.838 109.225 452.873C101.73 452.883 93.5212 452.893 84.7092 452.905C82.5062 452.907 80.2652 452.909 77.9882 452.912C76.8492 452.913 75.7022 452.914 74.5462 452.915C73.9682 452.916 73.3882 452.916 72.8052 452.917C72.2312 452.943 71.5492 452.858 70.9992 452.553C70.4392 452.257 69.9702 451.791 69.6742 451.225C69.3652 450.672 69.2862 449.974 69.3122 449.393C69.3112 448.202 69.3102 447.003 69.3092 445.796C69.3072 443.382 69.3052 440.935 69.3042 438.458C69.2992 428.548 69.2942 418.145 69.2892 407.36C69.2882 401.968 69.2862 396.48 69.2852 390.91C69.2852 388.125 69.2842 385.32 69.2842 382.496V380.375V379.312C69.2912 378.942 69.3212 378.559 69.4212 378.195C69.7702 376.716 70.9632 375.486 72.4242 375.056C73.1652 374.827 73.9302 374.877 74.6222 374.872H76.7562C78.1772 374.872 79.5932 374.872 81.0042 374.872C83.8272 374.872 86.6312 374.873 89.4152 374.873C94.9832 374.874 100.47 374.876 105.861 374.877C116.643 374.882 127.044 374.887 136.953 374.892C141.907 374.896 146.738 374.899 151.432 374.903C152.606 374.904 153.77 374.905 154.927 374.906C155.507 374.909 156.085 374.911 156.661 374.914C157.265 374.931 157.863 375.075 158.404 375.334C159.49 375.847 160.332 376.82 160.686 377.947C160.875 378.5 160.903 379.126 160.889 379.667C160.888 380.222 160.888 380.775 160.887 381.326C160.875 390.137 160.865 398.346 160.855 405.842C160.82 420.821 160.792 432.946 160.772 441.343C160.763 443.437 160.755 445.298 160.748 446.914C160.744 447.72 160.739 448.465 160.736 449.146C160.752 449.818 160.719 450.474 160.461 450.981C159.979 452.021 159.12 452.438 158.593 452.592C158.036 452.732 157.74 452.688 157.74 452.688Z" fill="#263238"/>
<path d="M164.236 467.31C162.933 467.018 161.333 467.155 160.068 467.546C133.826 475.647 102.393 476.657 72.915 469.146C70.486 468.527 66.622 467.214 64.286 468.122C61.949 469.03 61.055 471.98 62.439 474.071C62.439 474.071 68.345 478.236 84.032 479.961C101.171 482.349 121.217 481.995 142.829 480.164C144.382 480.032 145.93 479.802 147.453 479.473C153.822 478.096 160.712 476.397 164.627 473.376C166.132 472.215 167.725 470.574 165.522 468.094C165.183 467.714 164.732 467.421 164.236 467.31Z" fill="#455A64"/>
<path d="M164.236 467.31C164.236 467.31 164.436 467.319 164.782 467.482C165.137 467.633 165.574 468.021 166.003 468.624C166.418 469.201 166.914 470.149 166.542 471.24C166.16 472.305 165.146 473.15 164.008 473.945C161.687 475.547 158.449 476.803 154.635 477.891C152.723 478.43 150.658 478.932 148.462 479.422C146.276 479.952 143.891 480.305 141.401 480.464C131.451 481.283 119.563 482.056 106.347 481.833C99.744 481.715 92.803 481.338 85.669 480.427C82.106 479.986 78.461 479.553 74.824 478.744C71.19 477.958 67.533 476.909 64.055 475.263C63.437 474.959 62.84 474.645 62.289 474.282L62.253 474.258L62.222 474.213C61.079 472.529 61.394 470.117 62.839 468.751C63.543 468.053 64.527 467.666 65.478 467.592C66.434 467.494 67.372 467.598 68.285 467.75C70.115 468.054 71.846 468.634 73.587 469.039C75.335 469.449 77.068 469.855 78.786 470.258C85.685 471.758 92.435 472.718 98.885 473.303C105.337 473.878 111.495 474.088 117.25 473.987C123.004 473.849 128.356 473.5 133.215 472.935C142.94 471.837 150.665 470.027 155.941 468.63C157.253 468.261 158.421 467.933 159.436 467.647C160.44 467.339 161.331 467.156 162.052 467.125C163.501 467.045 164.236 467.31 164.236 467.31C164.234 467.322 164.049 467.281 163.684 467.241C163.319 467.203 162.772 467.17 162.059 467.231C161.341 467.28 160.482 467.472 159.479 467.796C158.466 468.095 157.302 468.439 155.993 468.826C150.727 470.284 142.998 472.152 133.256 473.3C128.389 473.89 123.026 474.261 117.257 474.418C111.487 474.538 105.313 474.344 98.841 473.78C92.371 473.207 85.6 472.254 78.678 470.757C76.954 470.355 75.215 469.948 73.461 469.539C71.7 469.13 69.978 468.555 68.198 468.262C66.467 467.971 64.469 467.86 63.199 469.128C61.933 470.322 61.653 472.462 62.656 473.929L62.589 473.86C63.083 474.184 63.685 474.505 64.284 474.798C67.697 476.414 71.328 477.459 74.934 478.24C78.544 479.045 82.167 479.478 85.73 479.922C92.846 480.837 99.765 481.223 106.356 481.354C119.546 481.603 131.424 480.87 141.371 480.098C143.866 479.949 146.2 479.616 148.39 479.1C150.586 478.624 152.647 478.136 154.556 477.612C158.363 476.555 161.586 475.334 163.894 473.778C165.031 473.006 166.027 472.184 166.396 471.189C166.761 470.176 166.313 469.263 165.917 468.684C165.117 467.413 164.193 467.339 164.236 467.31Z" fill="#263238"/>
<g opacity="0.2">
<path d="M88.15 390.433L145.763 439.529C149.774 442.947 155.949 440.097 155.949 434.826V385.73C155.949 382.318 153.183 379.552 149.771 379.552H92.1571C86.4121 379.552 83.777 386.707 88.15 390.433Z" fill="white"/>
</g>
<g opacity="0.2">
<path d="M198.724 390.433L256.337 439.529C260.348 442.947 266.523 440.097 266.523 434.826V385.73C266.523 382.318 263.757 379.552 260.345 379.552H202.732C196.986 379.552 194.351 386.707 198.724 390.433Z" fill="white"/>
</g>
<g opacity="0.2">
<path d="M309.298 390.433L366.911 439.529C370.922 442.947 377.097 440.097 377.097 434.826V385.73C377.097 382.318 374.331 379.552 370.919 379.552H313.306C307.561 379.552 304.926 386.707 309.298 390.433Z" fill="white"/>
</g>
<path d="M300.383 530.774L300.088 551.675C300.088 551.675 321.234 558.994 321.555 562.862L281.009 563.745L280.133 531.16L300.383 530.774Z" fill="#263238"/>
<path d="M281.009 563.745L281.049 560.457L319.908 560.84C319.908 560.84 321.73 561.586 321.554 562.862L281.009 563.745Z" fill="#455A64"/>
<path d="M300.741 551.454C300.739 551.653 299.751 551.764 298.79 552.421C297.812 553.054 297.329 553.922 297.145 553.848C296.962 553.814 297.231 552.624 298.408 551.848C299.577 551.061 300.779 551.271 300.741 551.454Z" fill="white"/>
<path d="M305.032 553.121C305.081 553.312 304.231 553.667 303.577 554.519C302.898 555.352 302.748 556.261 302.55 556.256C302.365 556.292 302.203 555.135 303.036 554.091C303.86 553.041 305.023 552.932 305.032 553.121Z" fill="white"/>
<path d="M307.558 558.157C307.379 558.203 307.082 557.221 307.567 556.126C308.044 555.027 308.968 554.579 309.056 554.742C309.172 554.902 308.583 555.497 308.199 556.402C307.792 557.298 307.754 558.133 307.558 558.157Z" fill="white"/>
<path d="M300.279 546.683C300.2 546.865 299.286 546.612 298.168 546.712C297.049 546.79 296.186 547.184 296.079 547.016C295.961 546.875 296.796 546.124 298.114 546.024C299.43 545.916 300.373 546.525 300.279 546.683Z" fill="white"/>
<path d="M250.723 529.67L249.552 554.932L254.387 575.18C254.736 576.639 253.775 578.089 252.296 578.337C251.468 578.476 250.629 578.211 250.036 577.615C246.265 573.824 232.46 559.811 232.65 557.967C232.869 555.831 232.116 531.238 232.116 531.238L250.723 529.67Z" fill="#263238"/>
<path d="M252.295 578.337L232.689 556.261L232.664 557.332C232.642 558.258 232.946 559.162 233.529 559.882C235.09 561.806 239.517 567.025 249.959 577.614C250.567 578.23 251.447 578.503 252.295 578.337Z" fill="#455A64"/>
<path d="M246.776 567.155C246.917 567.228 247.518 565.917 249.039 565.241C250.538 564.519 251.927 564.908 251.963 564.753C251.987 564.691 251.671 564.487 251.081 564.39C250.497 564.29 249.639 564.352 248.805 564.737C247.973 565.124 247.37 565.738 247.069 566.248C246.762 566.761 246.714 567.133 246.776 567.155Z" fill="white"/>
<path d="M248.497 570.583C248.615 570.695 249.445 569.892 250.762 569.549C252.071 569.176 253.194 569.445 253.239 569.288C253.315 569.161 252.11 568.596 250.616 569.013C249.117 569.413 248.367 570.512 248.497 570.583Z" fill="white"/>
<path d="M243.526 562.737C243.642 562.86 244.913 561.618 246.913 560.904C248.903 560.158 250.675 560.286 250.684 560.118C250.728 559.984 248.858 559.589 246.723 560.383C244.58 561.155 243.406 562.664 243.526 562.737Z" fill="white"/>
<path d="M243.24 555.029C243.304 555.182 244.714 554.631 246.533 554.608C248.352 554.56 249.782 555.055 249.84 554.9C249.912 554.777 248.477 554.006 246.522 554.052C244.568 554.082 243.163 554.909 243.24 555.029Z" fill="white"/>
<path d="M243.396 547.604C243.471 547.752 244.895 546.942 246.812 547.075C248.733 547.165 250.053 548.134 250.145 547.995C250.188 547.943 249.919 547.62 249.344 547.269C248.774 546.918 247.878 546.582 246.845 546.52C245.811 546.462 244.882 546.692 244.276 546.975C243.664 547.257 243.36 547.548 243.396 547.604Z" fill="white"/>
<path d="M246.801 545.661C246.833 545.662 246.898 545.324 246.858 544.705C246.816 544.092 246.66 543.187 246.157 542.183C245.895 541.707 245.624 541.097 244.927 540.747C244.58 540.571 244.056 540.623 243.748 540.951C243.443 541.27 243.34 541.682 243.322 542.083C243.311 543.688 244.652 545.273 246.451 545.546C248.259 545.788 249.925 544.791 250.675 543.422C250.84 543.067 250.959 542.629 250.773 542.198C250.59 541.763 250.08 541.579 249.717 541.633C248.963 541.728 248.479 542.149 248.031 542.459C247.143 543.139 246.587 543.863 246.26 544.383C245.931 544.907 245.822 545.233 245.851 545.248C245.938 545.317 246.519 544.021 248.262 542.777C248.701 542.492 249.208 542.13 249.749 542.092C250.013 542.072 250.237 542.182 250.326 542.397C250.418 542.603 250.358 542.919 250.214 543.198C249.581 544.318 248.056 545.225 246.531 544.997C245.012 544.782 243.835 543.388 243.832 542.096C243.836 541.785 243.926 541.474 244.096 541.293C244.264 541.115 244.514 541.071 244.745 541.171C245.232 541.381 245.55 541.919 245.809 542.368C246.832 544.249 246.688 545.684 246.801 545.661Z" fill="white"/>
<path d="M317.809 340.931C317.809 340.931 321.261 350.035 320.459 365.914C320.149 372.058 306.892 548.085 306.892 548.085L276.749 548.801L279.71 390.089L277.712 390.539C277.712 390.539 267.832 456.645 266.804 467.697C265.88 477.63 253.665 550.526 253.665 550.526L225.635 550.06L231.317 461.938L236.601 361.768L243.678 337.606L317.809 340.931Z" fill="#FF725E"/>
<g opacity="0.3">
<path d="M320.379 373C320.379 373 309.818 379.401 288.95 379.588C266.1 379.793 238.809 375.735 238.809 375.735L237.751 366.168L236.196 369.427L235.809 376.911C235.809 376.911 244.228 379.397 257.685 380.755C271.141 382.113 281.141 382.113 292.622 382.236C304.103 382.36 319.745 376.088 319.745 376.088L320.379 373Z" fill="black"/>
</g>
<path d="M295.072 189.027C297.506 189.37 300.075 187.829 300.918 185.521C301.172 184.826 301.279 184.049 301.043 183.348C300.808 182.647 300.173 182.051 299.434 182.018C300.421 181.34 301.167 180.281 301.351 179.098C301.535 177.915 301.11 176.627 300.178 175.875C299.247 175.123 297.822 174.998 296.832 175.672C296.856 174.379 296.065 173.107 294.895 172.555L289.626 173.77L295.072 189.027Z" fill="#263238"/>
<path d="M287.079 243.933L287.148 228.621C287.148 228.621 298.166 226.817 298.214 215.786C298.237 210.458 297.391 199.484 296.511 189.561C295.565 178.892 286.583 170.74 275.873 170.826L274.809 170.834C263.339 171.596 257.578 181.764 258.658 193.209L261.667 235.373L252.145 240.192L287.079 243.933Z" fill="#FFBF9D"/>
<path d="M287.15 228.635C287.15 228.635 280.2 229.275 272.739 225.693C272.739 225.693 276.137 232.534 287.138 231.452L287.15 228.635Z" fill="#FF9A6C"/>
<path d="M291.197 199.882C291.233 200.714 290.559 201.43 289.691 201.484C288.825 201.537 288.092 200.908 288.056 200.076C288.02 199.244 288.694 198.527 289.561 198.473C290.428 198.42 291.162 199.05 291.197 199.882Z" fill="#263238"/>
<path d="M294.187 194.983C293.994 195.19 292.793 194.316 291.097 194.334C289.403 194.328 288.166 195.21 287.981 195.004C287.89 194.913 288.086 194.54 288.624 194.141C289.154 193.744 290.061 193.355 291.117 193.351C292.173 193.348 293.064 193.73 293.578 194.124C294.104 194.52 294.283 194.89 294.187 194.983Z" fill="#263238"/>
<path d="M276.457 199.882C276.493 200.714 275.819 201.43 274.951 201.484C274.085 201.538 273.352 200.909 273.315 200.076C273.279 199.244 273.954 198.527 274.82 198.474C275.688 198.42 276.421 199.05 276.457 199.882Z" fill="#263238"/>
<path d="M277.525 195.433C277.331 195.64 276.129 194.767 274.434 194.785C272.741 194.779 271.503 195.661 271.318 195.455C271.227 195.364 271.421 194.991 271.962 194.593C272.492 194.196 273.398 193.807 274.455 193.802C275.511 193.799 276.402 194.181 276.917 194.575C277.439 194.97 277.62 195.34 277.525 195.433Z" fill="#263238"/>
<path d="M283.779 207.957C283.77 207.861 284.823 207.67 286.529 207.438C286.961 207.39 287.37 207.301 287.441 207.004C287.54 206.691 287.356 206.225 287.142 205.723C286.727 204.679 286.292 203.584 285.835 202.437C284.019 197.758 282.701 193.908 282.89 193.837C283.079 193.766 284.704 197.5 286.52 202.18C286.957 203.334 287.375 204.434 287.773 205.487C287.941 205.978 288.227 206.534 288.011 207.184C287.897 207.509 287.581 207.746 287.304 207.823C287.027 207.91 286.784 207.917 286.57 207.931C284.852 208.037 283.786 208.053 283.779 207.957Z" fill="#263238"/>
<path d="M278.799 209.169C279.075 209.151 279.093 210.991 280.678 212.284C282.261 213.582 284.221 213.36 284.238 213.617C284.265 213.732 283.804 213.978 282.976 214.007C282.164 214.041 280.976 213.79 280.006 212.999C279.039 212.205 278.617 211.14 278.548 210.386C278.471 209.616 278.672 209.159 278.799 209.169Z" fill="#263238"/>
<path d="M277.909 188.784C277.745 189.246 276.051 189.041 274.064 189.297C272.071 189.513 270.472 190.108 270.205 189.697C270.086 189.5 270.362 189.064 271.007 188.613C271.646 188.162 272.668 187.731 273.861 187.588C275.054 187.448 276.149 187.629 276.876 187.918C277.609 188.206 277.98 188.565 277.909 188.784Z" fill="#263238"/>
<path d="M293.525 190.081C293.23 190.469 292.059 190.078 290.654 190.071C289.25 190.014 288.062 190.351 287.786 189.95C287.665 189.755 287.848 189.368 288.365 188.999C288.874 188.632 289.728 188.328 290.694 188.349C291.659 188.372 292.498 188.714 292.99 189.105C293.489 189.497 293.655 189.892 293.525 190.081Z" fill="#263238"/>
<path d="M295.414 184.514C295.414 184.514 292.449 177.628 289.104 176.043C285.055 174.123 283.354 178.564 279.502 177.521C275.65 176.477 271.784 174.635 267.88 177.638C263.607 180.925 265.639 183.19 265.413 188.087C264.496 207.942 260.916 213.584 259.81 204.244C259.689 203.221 256.84 202.429 256.384 198.105C255.793 192.498 255.523 185.687 256.743 181.695C257.772 178.33 259.667 175.996 263.077 173.412C268.462 169.333 275.902 169.187 280.959 169.654C286.016 170.123 295.805 175.859 295.414 184.514Z" fill="#263238"/>
<path d="M260.511 203.939C260.428 202.237 258.95 200.904 257.254 201.079C255.198 201.291 252.918 202.478 253.087 206.728C253.388 214.269 260.897 212.411 260.901 212.194C260.906 212.047 260.665 207.093 260.511 203.939Z" fill="#FFBF9D"/>
<path d="M259.149 209.422C259.115 209.399 259.021 209.519 258.803 209.63C258.59 209.738 258.221 209.821 257.822 209.689C257.014 209.429 256.293 208.191 256.202 206.833C256.155 206.148 256.273 205.488 256.495 204.938C256.703 204.377 257.044 203.977 257.443 203.89C257.838 203.782 258.132 204.01 258.233 204.219C258.343 204.426 258.301 204.578 258.341 204.589C258.363 204.607 258.498 204.456 258.425 204.147C258.388 203.999 258.292 203.824 258.109 203.687C257.922 203.547 257.653 203.482 257.375 203.524C256.795 203.587 256.293 204.143 256.05 204.748C255.775 205.356 255.626 206.098 255.679 206.868C255.788 208.386 256.623 209.777 257.725 210.048C258.261 210.166 258.697 209.988 258.918 209.801C259.142 209.605 259.175 209.435 259.149 209.422Z" fill="#FF9A6C"/>
<path d="M285.078 183.205C285.097 183.204 285.113 183.211 285.132 183.211C285.177 183.214 285.223 183.214 285.268 183.218L285.078 183.205Z" fill="#FF725E"/>
<path d="M298.778 169.935C298.086 168.029 296.248 166.694 294.278 166.213C292.309 165.732 290.225 166.004 288.272 166.549C288.371 163.807 285.295 161.823 282.558 162.013C279.821 162.203 277.442 163.875 275.221 165.487C271.82 163.557 266.904 165.242 265.401 168.852C263.375 167.826 260.806 167.967 258.906 169.21C257.005 170.452 255.845 172.749 255.973 175.016C254.202 175.423 252.709 176.862 252.237 178.617C251.765 180.372 252.335 182.366 253.662 183.606C252.429 184.452 251.839 186.131 252.271 187.563C252.703 188.995 254.125 190.066 255.619 190.088L260.899 185.048C263.905 185.471 266.973 182.849 267.024 179.814C269.341 180.619 272.113 179.876 273.717 178.021C274.268 179.409 275.541 180.486 277.001 180.798C278.461 181.111 280.064 180.65 281.134 179.609C281.397 181.628 282.912 183.429 284.856 184.035C286.8 184.641 289.07 184.02 290.434 182.509C292.381 184.013 295.477 183.721 297.109 181.881C298.741 180.041 298.66 176.932 296.934 175.179C298.746 174.271 299.47 171.84 298.778 169.935Z" fill="#263238"/>
<path d="M266.689 181.087C266.716 181.093 266.709 181.322 266.57 181.715C266.429 182.103 266.136 182.66 265.563 183.175C265.002 183.685 264.119 184.153 263.053 184.149C262.007 184.155 260.812 183.716 259.986 182.747L260.422 182.717C260.07 183.276 259.578 183.773 258.991 184.147C257.736 184.94 256.209 185.112 254.984 184.704C253.741 184.305 252.907 183.402 252.443 182.583C251.972 181.747 251.855 180.962 251.85 180.44C251.855 179.912 251.951 179.633 251.979 179.638C252.09 179.621 251.827 180.851 252.775 182.383C253.244 183.115 254.033 183.899 255.134 184.221C256.218 184.557 257.58 184.389 258.696 183.684C259.217 183.352 259.651 182.916 259.964 182.432L260.165 182.121L260.399 182.403C261.094 183.239 262.137 183.656 263.058 183.678C263.991 183.712 264.79 183.34 265.336 182.907C266.446 182.003 266.602 181.041 266.689 181.087Z" fill="#455A64"/>
<path d="M284.552 233.359C285.185 233.563 293.969 234.79 293.922 234.995C293.875 235.199 284.552 264.336 284.552 264.336L259.32 236.12L284.552 233.359Z" fill="#FFBF9D"/>
<path d="M240.145 374.978C240.141 374.978 240.139 374.977 240.136 374.977C240.139 374.977 240.142 374.978 240.145 374.978Z" fill="#FF725E"/>
<path d="M240.168 374.98C240.16 374.979 240.153 374.978 240.147 374.978C240.157 374.979 240.168 374.98 240.168 374.98Z" fill="#FF725E"/>
<path d="M319.605 311.553C319.605 311.553 316.013 291.423 315.217 277.942C313.975 256.911 316.677 240.09 315.564 239.572C314.451 239.054 292.027 233.761 292.027 233.761L283.145 255.249L260.811 234.931L227.06 244.384L209.286 280.99L235.432 300.659L237.75 295.094C237.75 295.094 238.473 317.036 238.473 317.812C238.473 318.588 237.75 342.262 237.75 342.262L235.299 371.248L238.75 364.096V376.879L238.808 375.735C239.233 375.781 244.663 375.464 275.777 378.82C314.172 382.961 325.709 368.996 325.709 368.996L319.605 311.553Z" fill="#FF725E"/>
<path d="M315.217 239.94C315.217 239.94 319.02 241.394 321.727 248.795C324.434 256.195 336.348 282.452 336.348 282.452C336.348 282.452 322.758 295.05 316.467 296.332C310.176 297.613 315.217 239.94 315.217 239.94Z" fill="#FF725E"/>
<path d="M315.217 240.538C315.252 240.546 315.194 240.978 315.06 241.751C314.911 242.63 314.725 243.725 314.505 245.024C314.054 247.789 313.535 251.626 313.237 255.887C312.945 260.151 312.93 264.022 312.996 266.823C313.035 268.14 313.068 269.25 313.095 270.141C313.122 270.925 313.119 271.361 313.083 271.364C313.047 271.367 312.981 270.937 312.892 270.156C312.799 269.375 312.706 268.241 312.627 266.837C312.466 264.03 312.422 260.137 312.716 255.851C313.015 251.567 313.595 247.717 314.141 244.959C314.413 243.579 314.661 242.469 314.86 241.708C315.057 240.947 315.182 240.53 315.217 240.538Z" fill="#263238"/>
<path d="M213.738 284.338C213.738 284.338 206.143 309.657 207.754 314.846C209.365 320.035 242.096 345.324 242.096 345.324C242.368 345.921 255.559 337.49 255.946 336.828C256.263 336.286 228.863 309.811 228.863 309.811L232.025 298.094L213.738 284.338Z" fill="#FFBF9D"/>
<path d="M237.471 295.778C237.453 295.778 237.432 295.601 237.41 295.267C237.39 294.873 237.365 294.39 237.335 293.805C237.281 293.146 237.219 292.375 237.147 291.495C237.049 290.584 236.94 289.563 236.82 288.443C236.281 283.926 235.356 277.703 234.058 270.882C232.75 264.061 231.35 257.926 230.074 253.562C229.447 251.376 228.854 249.635 228.422 248.44C228.21 247.893 228.035 247.443 227.892 247.075C227.776 246.76 227.723 246.591 227.739 246.583C227.755 246.575 227.84 246.73 227.988 247.031C228.156 247.39 228.361 247.83 228.611 248.364C229.103 249.542 229.752 251.275 230.427 253.455C231.799 257.811 233.259 263.949 234.57 270.784C235.87 277.619 236.74 283.864 237.186 288.403C237.278 289.529 237.362 290.555 237.438 291.471C237.476 292.356 237.51 293.131 237.539 293.795C237.53 294.384 237.522 294.87 237.516 295.266C237.504 295.602 237.489 295.778 237.471 295.778Z" fill="#263238"/>
<path d="M297.21 234.791C297.226 234.797 297.163 235.01 297.03 235.413C296.876 235.86 296.675 236.443 296.423 237.17C295.856 238.745 295.066 240.941 294.09 243.652C292.05 249.185 289.24 256.806 286.069 265.406L285.934 265.771L285.65 265.504C284.566 264.486 283.423 263.413 282.262 262.323C274.808 255.277 268.063 248.9 263.132 244.238C260.732 241.935 258.776 240.058 257.376 238.714C256.733 238.082 256.218 237.576 255.829 237.193C255.479 236.841 255.302 236.65 255.314 236.637C255.326 236.624 255.528 236.789 255.901 237.117C256.307 237.482 256.844 237.964 257.515 238.567C258.943 239.881 260.937 241.717 263.385 243.97C268.343 248.603 275.125 254.94 282.62 261.944C283.779 263.034 284.922 264.109 286.005 265.128L285.586 265.226C288.82 256.65 291.686 249.05 293.767 243.532C294.804 240.845 295.645 238.667 296.247 237.106C296.533 236.392 296.763 235.819 296.939 235.381C297.102 234.987 297.194 234.785 297.21 234.791Z" fill="#263238"/>
<path d="M250.124 281.894L266.168 280.434L265.449 276.605L249.846 277.722L250.124 281.894Z" fill="white"/>
<path d="M238.687 348.004C238.696 348.01 238.731 348.175 238.79 348.489C238.852 348.832 238.935 349.29 239.041 349.874C239.256 351.113 239.562 352.877 239.951 355.118C240.717 359.656 241.808 366.119 243.133 373.969L242.949 373.794C247.189 374.022 251.937 373.811 256.981 373.692C262.032 373.537 267.415 373.339 273.02 373.1L272.778 373.412C272.26 370.966 271.713 368.384 271.158 365.764C268.568 353.454 266.153 341.972 264.129 332.351L264.452 332.498C256.546 336.926 250.509 341.475 246.062 344.304C243.847 345.734 242.029 346.742 240.733 347.306C240.078 347.584 239.58 347.774 239.232 347.857C238.885 347.958 238.696 348.01 238.687 348.004C238.678 347.998 238.845 347.932 239.188 347.805C239.542 347.69 240.043 347.477 240.677 347.184C241.946 346.585 243.732 345.549 245.921 344.09C250.316 341.205 256.318 336.601 264.236 332.113L264.496 331.965L264.559 332.259C266.605 341.875 269.048 353.352 271.667 365.655C272.221 368.275 272.767 370.857 273.283 373.303L273.346 373.602L273.041 373.615C267.433 373.848 262.049 374.035 256.994 374.174C251.933 374.275 247.225 374.469 242.902 374.209L242.744 374.2L242.718 374.035C241.473 366.121 240.448 359.604 239.729 355.029C239.389 352.799 239.121 351.043 238.933 349.81C238.85 349.239 238.785 348.79 238.737 348.454C238.695 348.151 238.678 347.998 238.687 348.004Z" fill="#263238"/>
<path d="M325.71 368.078C325.715 368.089 325.605 368.145 325.387 368.242C325.169 368.34 324.844 368.481 324.409 368.631C323.545 368.953 322.256 369.353 320.61 369.822C317.316 370.758 312.585 371.941 306.907 373.224L306.622 373.288L306.627 372.994C306.717 367.976 306.82 362.167 306.93 356.001C307.123 347.283 307.301 339.282 307.439 333.078L307.444 332.862L307.658 332.881C311.801 333.244 315.185 333.451 317.532 333.564C318.664 333.614 319.568 333.654 320.242 333.684C320.863 333.712 321.191 333.732 321.191 333.753C321.191 333.773 320.863 333.792 320.24 333.802C319.618 333.812 318.701 333.814 317.524 333.791C315.171 333.747 311.777 333.6 307.625 333.284L307.843 333.087C307.737 339.292 307.6 347.293 307.451 356.012C307.319 362.178 307.194 367.987 307.087 373.004L306.808 372.775C312.488 371.537 317.231 370.418 320.539 369.56C322.192 369.13 323.489 368.772 324.363 368.495C325.241 368.231 325.696 368.046 325.71 368.078Z" fill="#263238"/>
<path d="M259.621 337.609C259.652 337.628 259.502 337.925 259.203 338.448C258.91 338.974 258.438 339.707 257.816 340.586C256.575 342.345 254.647 344.641 252.177 346.822C249.7 348.998 247.179 350.62 245.277 351.629C244.327 352.135 243.539 352.51 242.981 352.735C242.425 352.965 242.111 353.076 242.096 353.044C242.06 352.965 243.257 352.393 245.096 351.309C246.935 350.228 249.388 348.58 251.833 346.432C254.271 344.279 256.216 342.054 257.521 340.367C258.828 338.679 259.548 337.564 259.621 337.609Z" fill="#263238"/>
<path d="M291.882 269.675L293.265 269.992C293.177 268.778 290.958 239.843 290.687 238.478C290.639 238.237 290.595 237.914 290.544 237.551C290.445 236.837 290.322 235.949 290.115 235.226C289.54 233.213 288.813 231.216 287.465 230.113L287.707 232.346C288.482 233.105 288.41 233.769 288.924 235.565C289.106 236.204 289.223 237.045 289.317 237.721C289.371 238.111 289.42 238.459 289.471 238.718C289.684 239.79 291.284 261.428 291.882 269.675Z" fill="#455A64"/>
<path d="M287.171 269.771C285.709 273.206 287.308 277.175 290.742 278.637C294.177 280.099 298.146 278.5 299.608 275.066C301.07 271.632 299.471 267.662 296.037 266.2C292.603 264.738 288.633 266.336 287.171 269.771Z" fill="#263238"/>
<path d="M288.893 270.504C287.836 272.987 288.992 275.858 291.475 276.915C293.959 277.972 296.829 276.816 297.886 274.333C298.943 271.849 297.787 268.979 295.304 267.922C292.821 266.865 289.95 268.02 288.893 270.504Z" fill="#E0E0E0"/>
<path d="M284.273 315.397L304.721 257.102L334.794 258.028L313.049 316.168L284.273 315.397Z" fill="#263238"/>
<path d="M307.704 291.127C307.704 291.127 305.429 280.131 303.533 279.183C301.637 278.235 298.035 278.614 296.897 277.477C295.759 276.34 295.191 275.202 294.243 275.771C293.295 276.34 293.674 279.942 294.243 280.89C294.243 280.89 289.503 280.132 288.555 281.079C287.607 282.027 288.555 285.629 288.555 285.629C288.555 285.629 287.712 287.904 288.134 289.99C288.134 289.99 286.718 292.265 288.016 294.54C289.314 296.815 294.104 302.313 297.586 303.261C301.068 304.209 303.948 305.698 303.948 305.698C303.948 305.698 313.158 312.477 318.95 315.851C328.484 321.405 333.11 321.093 338.124 317.019C343.397 312.734 336.64 288.447 334.744 283.897L321.247 294.043L323.593 300.062C316.183 297.065 307.704 291.127 307.704 291.127Z" fill="#FFBF9D"/>
<path d="M288.95 284.476C289.04 284.372 290.225 285.28 291.337 286.732C292.455 288.18 293.028 289.559 292.904 289.618C292.771 289.688 292.01 288.454 290.924 287.049C289.846 285.639 288.848 284.586 288.95 284.476Z" fill="#FF9A6C"/>
<path d="M300.558 285.415C300.485 285.45 300.274 285.083 299.799 284.628C299.331 284.165 298.571 283.653 297.659 283.179C296.744 282.705 295.887 282.256 295.337 281.816C294.78 281.384 294.53 281.017 294.578 280.972C294.633 280.917 294.963 281.178 295.543 281.511C296.118 281.854 296.965 282.233 297.902 282.719C298.841 283.206 299.637 283.811 300.072 284.382C300.517 284.946 300.616 285.393 300.558 285.415Z" fill="#FF9A6C"/>
<path d="M291.708 293.69C291.635 293.805 290.5 293.161 289.483 291.94C288.459 290.725 288.024 289.495 288.15 289.443C288.286 289.377 288.908 290.452 289.882 291.606C290.848 292.767 291.797 293.567 291.708 293.69Z" fill="#FF9A6C"/>
<path d="M333.377 300.062C333.355 300.09 333.215 300.039 332.987 299.927C332.77 299.796 332.431 299.664 332.012 299.513C331.166 299.233 329.927 299.064 328.552 299.18C325.794 299.39 323.644 300.215 323.594 300.062C323.533 299.952 325.639 298.883 328.517 298.66C329.947 298.538 331.276 298.777 332.145 299.169C332.576 299.376 332.907 299.569 333.1 299.758C333.301 299.929 333.399 300.034 333.377 300.062Z" fill="#FF9A6C"/>
<path d="M258.554 256.265L259.762 255.993C259.748 255.928 258.293 249.455 256.94 242.626C256.404 239.918 256.421 237.742 256.993 236.156C257.487 234.785 259.635 234.123 261.096 234.379L260.875 232.635C258.844 232.436 256.526 233.796 255.828 235.736C255.18 237.536 255.145 239.935 255.725 242.866C257.081 249.712 258.539 256.2 258.554 256.265Z" fill="#455A64"/>
<path d="M254.477 269.538L256.134 269.207C255.437 265.708 254.718 259.597 255.753 258.095C256.379 257.186 257.841 256.552 259.477 256.477C261.405 256.391 263.116 257.064 264.172 258.331C265.685 260.146 267.437 265.925 267.984 268L269.618 267.569C269.534 267.249 267.533 259.722 265.47 257.249C264.073 255.574 261.861 254.679 259.4 254.79C257.222 254.889 255.292 255.788 254.362 257.136C252.622 259.66 254.153 267.91 254.477 269.538Z" fill="#455A64"/>
<path d="M266.79 297.804C268.711 298.141 270.774 297.445 272.942 295.723L272.417 295.061C270.03 296.956 267.829 297.489 265.87 296.652C257.912 293.242 255.646 269.067 255.625 268.824L254.783 268.899C254.875 269.915 257.121 293.821 265.537 297.429C265.947 297.604 266.365 297.73 266.79 297.804Z" fill="#263238"/>
<path d="M271.178 296.398C271.468 296.804 272.01 296.938 272.456 296.714L274.494 295.691C275.111 295.425 275.393 294.707 275.122 294.091C274.814 293.392 273.943 293.149 273.318 293.589L271.404 294.992C270.956 295.32 270.856 295.947 271.178 296.398Z" fill="#263238"/>
<path d="M263.133 297.938C265.697 298.389 267.746 297.876 269.239 296.407C275.601 290.146 269.471 268.583 269.207 267.668L268.395 267.902C268.458 268.121 274.652 289.895 268.646 295.804C267.082 297.343 264.751 297.655 261.721 296.726L261.474 297.534C262.049 297.71 262.602 297.844 263.133 297.938Z" fill="#263238"/>
<path d="M263.362 297.516C263.24 298 262.785 298.323 262.288 298.277L260.017 298.07C259.345 298.047 258.821 297.482 258.848 296.811C258.879 296.047 259.601 295.503 260.344 295.684L262.639 296.29C263.175 296.432 263.498 296.978 263.362 297.516Z" fill="#263238"/>
<g filter="url(#filter0_f_698_2684)">
<ellipse cx="242.5" cy="230.229" rx="75.5" ry="63.2286" fill="url(#paint0_radial_698_2684)" fill-opacity="0.64"/>
</g>
<defs>
<filter id="filter0_f_698_2684" x="0.60881" y="0.60881" width="483.782" height="459.239" filterUnits="userSpaceOnUse" color-interpolation-filters="sRGB">
<feFlood flood-opacity="0" result="BackgroundImageFix"/>
<feBlend mode="normal" in="SourceGraphic" in2="BackgroundImageFix" result="shape"/>
<feGaussianBlur stdDeviation="83.1956" result="effect1_foregroundBlur_698_2684"/>
</filter>
<radialGradient id="paint0_radial_698_2684" cx="0" cy="0" r="1" gradientUnits="userSpaceOnUse" gradientTransform="translate(92.2512 -149.143) rotate(59.962) scale(706.86 2354.12)">
<stop offset="0.275566" stop-color="#28A734"/>
<stop offset="0.49892" stop-color="#2C67AB"/>
<stop offset="0.565292" stop-color="#27479B"/>
<stop offset="0.656871" stop-color="#1F2CA0"/>
<stop offset="0.707417" stop-color="#9D2CAF"/>
</radialGradient>
</defs>
</svg>
