<svg width="24" height="24" viewBox="0 0 24 24" fill="none" xmlns="http://www.w3.org/2000/svg">
<path d="M5 1C3.89543 1 3 1.89543 3 3V21C3 22.1046 3.89544 23 5 23H10C10.5523 23 11 22.5523 11 22C11 21.4477 10.5523 21 10 21H5V3H19V8.19885C19 8.75113 19.4477 9.19885 20 9.19885C20.5523 9.19885 21 8.75113 21 8.19885V3C21 1.89544 20.1046 1 19 1H5Z" fill="#F4F3FA"/>
<path d="M8 6C7.44772 6 7 6.44772 7 7C7 7.55228 7.44772 8 8 8H14.5C15.0523 8 15.5 7.55228 15.5 7C15.5 6.44772 15.0523 6 14.5 6H8Z" fill="#F4F3FA"/>
<path d="M7 10.5C7 9.94771 7.44772 9.5 8 9.5H10.5C11.0523 9.5 11.5 9.94771 11.5 10.5C11.5 11.0523 11.0523 11.5 10.5 11.5H8C7.44772 11.5 7 11.0523 7 10.5Z" fill="#F4F3FA"/>
<path d="M17 17C17.5523 17 18 17.4477 18 18V19.5C18 20.0523 17.5523 20.5 17 20.5C16.4477 20.5 16 20.0523 16 19.5V18C16 17.4477 16.4477 17 17 17Z" fill="#F4F3FA"/>
<path d="M18 15C18 15.5523 17.5523 16 17 16C16.4477 16 16 15.5523 16 15C16 14.4477 16.4477 14 17 14C17.5523 14 18 14.4477 18 15Z" fill="#F4F3FA"/>
<path fill-rule="evenodd" clip-rule="evenodd" d="M23 17C23 13.6863 20.3137 11 17 11C13.6863 11 11 13.6863 11 17C11 20.3137 13.6863 23 17 23C20.3137 23 23 20.3137 23 17ZM17 13C19.2091 13 21 14.7909 21 17C21 19.2091 19.2091 21 17 21C14.7909 21 13 19.2091 13 17C13 14.7909 14.7909 13 17 13Z" fill="#F4F3FA"/>
<path fill-rule="evenodd" clip-rule="evenodd" d="M21 17C21 14.7909 19.2091 13 17 13C14.7909 13 13 14.7909 13 17C13 19.2091 14.7909 21 17 21C19.2091 21 21 19.2091 21 17ZM17 17C17.5523 17 18 17.4477 18 18V19.5C18 20.0523 17.5523 20.5 17 20.5C16.4477 20.5 16 20.0523 16 19.5V18C16 17.4477 16.4477 17 17 17ZM18 15C18 15.5523 17.5523 16 17 16C16.4477 16 16 15.5523 16 15C16 14.4477 16.4477 14 17 14C17.5523 14 18 14.4477 18 15Z" fill="#19F7E0" fill-opacity="0.05"/>
</svg>
