<svg width="44" height="44" viewBox="0 0 44 44" fill="none" xmlns="http://www.w3.org/2000/svg">
<rect width="44" height="44" rx="1" fill="#F3F3F3"/>
<g clip-path="url(#clip0_45_1832)">
<path d="M12 14.6683C12 14.0248 12.2252 13.4939 12.6757 13.0757C13.1261 12.6574 13.7117 12.4482 14.4324 12.4482C15.1403 12.4482 15.713 12.6541 16.1506 13.066C16.601 13.4907 16.8263 14.0441 16.8263 14.7262C16.8263 15.344 16.6075 15.8588 16.1699 16.2706C15.7194 16.6953 15.1274 16.9077 14.3938 16.9077H14.3745C13.6667 16.9077 13.094 16.6953 12.6564 16.2706C12.2188 15.8459 12 15.3118 12 14.6683ZM12.251 31.5602V18.6645H16.5367V31.5602H12.251ZM18.9112 31.5602H23.1969V24.3594C23.1969 23.909 23.2484 23.5615 23.3514 23.317C23.5315 22.8794 23.805 22.5094 24.1718 22.2069C24.5386 21.9045 24.9987 21.7533 25.5521 21.7533C26.9936 21.7533 27.7143 22.7249 27.7143 24.6683V31.5602H32V24.1664C32 22.2616 31.5496 20.817 30.6486 19.8324C29.7477 18.8479 28.5573 18.3556 27.0772 18.3556C25.417 18.3556 24.1236 19.0699 23.1969 20.4984V20.537H23.1776L23.1969 20.4984V18.6645H18.9112C18.9369 19.0763 18.9498 20.3569 18.9498 22.5062C18.9498 24.6554 18.9369 27.6735 18.9112 31.5602Z" fill="#0A66C2"/>
</g>
<defs>
<clipPath id="clip0_45_1832">
<rect width="20" height="20" fill="white" transform="translate(12 12)"/>
</clipPath>
</defs>
</svg>
