<svg width="28" height="28" viewBox="0 0 28 28" fill="none" xmlns="http://www.w3.org/2000/svg">
<path d="M22.1666 4.66634H20.9999V3.49967C20.9999 2.79967 20.5333 2.33301 19.8333 2.33301C19.1333 2.33301 18.6666 2.79967 18.6666 3.49967V4.66634H9.33325V3.49967C9.33325 2.79967 8.86659 2.33301 8.16659 2.33301C7.46659 2.33301 6.99992 2.79967 6.99992 3.49967V4.66634H5.83325C3.84992 4.66634 2.33325 6.18301 2.33325 8.16634V9.33301H25.6666V8.16634C25.6666 6.18301 24.1499 4.66634 22.1666 4.66634ZM2.33325 22.1663C2.33325 24.1497 3.84992 25.6663 5.83325 25.6663H22.1666C24.1499 25.6663 25.6666 24.1497 25.6666 22.1663V11.6663H2.33325V22.1663ZM19.8333 13.9997C20.5333 13.9997 20.9999 14.4663 20.9999 15.1663C20.9999 15.8663 20.5333 16.333 19.8333 16.333C19.1333 16.333 18.6666 15.8663 18.6666 15.1663C18.6666 14.4663 19.1333 13.9997 19.8333 13.9997ZM19.8333 18.6663C20.5333 18.6663 20.9999 19.133 20.9999 19.833C20.9999 20.533 20.5333 20.9997 19.8333 20.9997C19.1333 20.9997 18.6666 20.533 18.6666 19.833C18.6666 19.133 19.1333 18.6663 19.8333 18.6663ZM13.9999 13.9997C14.6999 13.9997 15.1666 14.4663 15.1666 15.1663C15.1666 15.8663 14.6999 16.333 13.9999 16.333C13.2999 16.333 12.8333 15.8663 12.8333 15.1663C12.8333 14.4663 13.2999 13.9997 13.9999 13.9997ZM13.9999 18.6663C14.6999 18.6663 15.1666 19.133 15.1666 19.833C15.1666 20.533 14.6999 20.9997 13.9999 20.9997C13.2999 20.9997 12.8333 20.533 12.8333 19.833C12.8333 19.133 13.2999 18.6663 13.9999 18.6663ZM8.16659 13.9997C8.86659 13.9997 9.33325 14.4663 9.33325 15.1663C9.33325 15.8663 8.86659 16.333 8.16659 16.333C7.46659 16.333 6.99992 15.8663 6.99992 15.1663C6.99992 14.4663 7.46659 13.9997 8.16659 13.9997ZM8.16659 18.6663C8.86659 18.6663 9.33325 19.133 9.33325 19.833C9.33325 20.533 8.86659 20.9997 8.16659 20.9997C7.46659 20.9997 6.99992 20.533 6.99992 19.833C6.99992 19.133 7.46659 18.6663 8.16659 18.6663Z" fill="#010812"/>
</svg>
