<svg width="714" height="796" viewBox="0 0 714 796" fill="none" xmlns="http://www.w3.org/2000/svg">
<path d="M791.392 539.88H667.742V640.548H791.392V539.88Z" fill="#B8E5FF"/>
<mask id="mask0_413_2122" style="mask-type:luminance" maskUnits="userSpaceOnUse" x="671" y="543" width="117" height="95">
<path d="M787.642 543.592H671.736V637.475H787.642V543.592Z" fill="white"/>
</mask>
<g mask="url(#mask0_413_2122)">
<path d="M787.642 543.592H671.736V637.475H787.642V543.592Z" fill="white"/>
</g>
<mask id="mask1_413_2122" style="mask-type:luminance" maskUnits="userSpaceOnUse" x="671" y="543" width="117" height="95">
<path d="M787.642 543.592H671.736V637.475H787.642V543.592Z" fill="white"/>
</mask>
<g mask="url(#mask1_413_2122)">
<path d="M797.096 646.1V592.233C797.074 592.231 797.053 592.228 797.031 592.228C796.733 592.196 796.443 592.37 796.445 592.633V596.582C794.281 596.913 794.592 598.718 794.602 600.198C791.223 601.178 791.44 603.858 791.527 606.454H788.889V614.389C786.475 615.296 784.922 616.567 784.922 618.201V631.415H781.862V578.957H779.308V573.939H764.665V578.957H762.079V622.275H759.481V598.359L750.873 594.1V587.007H744.864V587.004H743.73V587.007H743.721V590.863C743.69 590.886 743.603 590.937 743.568 590.957V590.966L738.012 595.935V630.135C737.546 630.19 737.186 630.312 736.725 630.569C736.22 630.852 736.035 631.166 735.703 631.415H734.361V617.235H730.162V581.823L715.982 593.941V617.235H712.658V617.198H711.09V592.878H700.566V631.416H700.554V600H688.581V613.123H678.267V623.269L677.742 622.977H674.407V612.778H669.727V610.098H662.318V646.1H797.096Z" fill="#F2FAFF"/>
</g>
<path d="M790.848 592.633V589.434H668.288V592.633H790.848Z" fill="#B8E5FF"/>
<path d="M394.742 753.223C385.404 753.223 377.834 746.874 377.834 739.041V719.707H411.651V739.041C411.651 746.874 404.081 753.223 394.742 753.223Z" fill="#6BB2E3"/>
<path d="M377.837 734.318H375.963V764.328H377.837V734.318Z" fill="#425899"/>
<path d="M413.526 734.318H411.652V764.328H413.526V734.318Z" fill="#425899"/>
<path d="M399.189 734.318H397.314V764.328H399.189V734.318Z" fill="#425899"/>
<path d="M411.742 754.796V753.224H375.964V754.796H411.742Z" fill="#425899"/>
<path d="M392.871 683.185C389.712 684.596 392.208 688.06 390.914 691.345C389.62 694.629 384.422 694.55 386.385 700.428C387.595 704.048 391.878 701.779 391.78 706.485C391.682 711.191 389.557 711.076 391.206 713.495C394.081 717.714 403.879 715.354 403.956 710.644C404.033 705.934 399.333 704.332 403.304 702.141C407.275 699.951 408.863 698.954 406.25 695.822C403.015 691.945 397.999 692.062 399.402 689.036C400.805 686.009 397.049 681.32 392.871 683.185Z" fill="#A3CFFF"/>
<path d="M394.541 719.6L395.364 719.799C400.955 703.455 395.72 688.066 395.667 687.913L394.845 688.114C394.898 688.266 400.061 703.464 394.541 719.6Z" fill="#425899"/>
<path d="M428.225 697.416C429.522 699.491 426.095 700.804 425.206 703.399C424.317 705.994 427.711 707.861 423.361 710.926C420.682 712.814 419.111 709.77 416.705 712.84C414.299 715.911 415.73 716.621 413.397 717.572C409.331 719.231 404.252 714.093 406.673 711.028C409.094 707.963 412.965 708.665 411.554 705.787C410.143 702.909 409.641 701.68 412.97 700.625C417.09 699.319 420.262 701.246 420.945 698.777C421.628 696.308 426.51 694.671 428.225 697.416Z" fill="#A3CFFF"/>
<path d="M408.043 720.278L407.408 720.102C412.377 707.502 423.826 699.512 423.941 699.433L424.365 699.866C424.251 699.944 412.949 707.837 408.043 720.278Z" fill="#425899"/>
<path d="M350.546 680.418C348.215 683.927 354.02 686.303 355.408 690.784C356.797 695.266 350.575 696.554 357.87 701.968C362.363 705.302 363.466 703.389 364.754 710.463C365.887 716.692 371.834 711.073 375.783 714.873C380.877 719.775 389.931 709.903 385.941 704.56C381.951 699.217 376.836 700.328 379.406 695.447C381.975 690.565 379.515 686.694 373.864 684.763C366.871 682.374 363.996 687.276 362.954 683.019C361.913 678.761 353.629 675.776 350.546 680.418Z" fill="#A1D3FF"/>
<path d="M383.947 720.35C376.182 698.831 357.224 684.898 357.033 684.76L357.783 684.032C357.976 684.172 377.184 698.289 385.044 720.072L383.947 720.35Z" fill="#425899"/>
<path d="M650.759 625.573C651.131 625.576 651.483 625.581 651.811 625.583V622.312H657.192V747.145H651.811V630.117C651.483 630.115 651.131 630.11 650.759 630.107C645.597 630.056 636.292 629.967 631.018 629.923C629.059 629.906 627.657 629.896 627.232 629.896V625.362C628.843 625.362 643.632 625.505 650.759 625.573Z" fill="white"/>
<path d="M658.108 625.136H650.762V631.328H658.108V625.136Z" fill="white"/>
<path d="M631.018 628.793V629.923C636.291 629.967 645.596 630.056 650.759 630.107V631.328H651.81V657.895L654.43 657.261C654.389 656.558 654.425 636.279 654.43 631.888C654.43 631.524 654.43 631.328 654.43 631.328H653.397V627.887H650.759V628.793L631.018 628.793Z" fill="#F2FAFF"/>
<path d="M565.101 634.519H637.354V624.156H565.101V634.519Z" fill="#4BA8D6"/>
<path d="M565.1 634.519H609.021V624.156H565.1V634.519Z" fill="#8CD6FF"/>
<path d="M565.1 628.042H609.021V626.747H565.1V628.042Z" fill="#4BA8D6"/>
<path d="M561.44 626.718H640.559V624.156H561.44V626.718Z" fill="white"/>
<path d="M613.605 631.277H638.644C638.758 631.277 638.851 631.199 638.851 631.103V625.214H638.437V630.93H613.812V624.156H613.398V631.103C613.398 631.199 613.491 631.277 613.605 631.277Z" fill="white"/>
<path d="M657.194 631.329H651.812V631.889H657.194V631.329Z" fill="#C4E8FF"/>
<path d="M574.144 624.048H618.484V622.397H574.144V624.048Z" fill="#8CD6FF"/>
<path d="M621.261 624.033H630.728L631.533 612.675H620.455L621.261 624.033Z" fill="white"/>
<path d="M630.416 619.024L630.1 623.475H621.888L621.572 619.024H630.416Z" fill="#8CD6FF"/>
<path opacity="0.3" d="M627.055 623.474H629.339L629.975 613.585H627.691L627.055 623.474Z" fill="white"/>
<path d="M605.052 622.433H611.635V616.911H605.052V622.433Z" fill="white"/>
<path d="M675.218 679.256L672.864 665.553H635.831L632.818 758.563H688.412V679.256H675.218Z" fill="#94DBFF"/>
<path d="M659.892 758.563H621.951L634.577 665.553H665.032L659.892 758.563Z" fill="#C2EBFF"/>
<path d="M695.577 756.594H616.342V764.47H695.577V756.594Z" fill="#69C6F5"/>
<path d="M659.303 696.638H636.033L637.025 689.405H659.634L659.303 696.638Z" fill="#94DBFF"/>
<path d="M658.809 707.433H634.553L635.629 699.584H659.168L658.809 707.433Z" fill="#94DBFF"/>
<path d="M658.275 719.186H632.945L634.117 710.637H658.666L658.275 719.186Z" fill="#94DBFF"/>
<path d="M657.685 732.026H631.182L632.462 722.681H658.112L657.685 732.026Z" fill="#94DBFF"/>
<path d="M657.042 746.114H629.252L630.658 735.854H657.511L657.042 746.114Z" fill="#94DBFF"/>
<path d="M573.32 633.041H571.135V634.14H573.32V633.041Z" fill="#30596E"/>
<path d="M573.199 624.664L573.004 624.426L575.684 622.883H577.959V623.173H575.791L573.199 624.664Z" fill="#4BA8D6"/>
<path d="M571.086 633.492H573.265C573.772 633.492 574.184 633.147 574.184 632.721V624.554C574.184 624.128 573.772 623.782 573.265 623.782H571.086C570.578 623.782 570.166 624.128 570.166 624.554V632.721C570.166 633.147 570.578 633.492 571.086 633.492Z" fill="#4BA8D6"/>
<path d="M575.031 626.077H569.273V628.276H575.031V626.077Z" fill="#8CD6FF"/>
<path d="M582.058 633.041H579.873V634.14H582.058V633.041Z" fill="#30596E"/>
<path d="M581.936 624.665L581.74 624.426L584.42 622.884H586.696V623.173H584.527L581.936 624.665Z" fill="#4BA8D6"/>
<path d="M579.822 633.493H582.001C582.509 633.493 582.92 633.147 582.92 632.721V624.554C582.92 624.128 582.509 623.783 582.001 623.783H579.822C579.314 623.783 578.902 624.128 578.902 624.554V632.721C578.902 633.147 579.314 633.493 579.822 633.493Z" fill="#4BA8D6"/>
<path d="M583.774 626.077H578.016V628.276H583.774V626.077Z" fill="#8CD6FF"/>
<path d="M591.16 633.041H588.975V634.14H591.16V633.041Z" fill="#30596E"/>
<path d="M591.039 624.664L590.844 624.426L593.523 622.883H595.799V623.173H593.63L591.039 624.664Z" fill="#4BA8D6"/>
<path d="M588.925 633.492H591.104C591.612 633.492 592.024 633.147 592.024 632.721V624.554C592.024 624.128 591.612 623.782 591.104 623.782H588.925C588.418 623.782 588.006 624.128 588.006 624.554V632.721C588.006 633.147 588.417 633.492 588.925 633.492Z" fill="#4BA8D6"/>
<path d="M592.875 626.077H587.117V628.276H592.875V626.077Z" fill="#8CD6FF"/>
<path d="M553.535 666.959C551.737 666.959 549.828 666.703 547.812 666.19L548.038 665.568C553.319 666.912 557.821 666.419 561.42 664.105C572.61 656.907 571.878 634.372 571.87 634.145L572.645 634.125C572.647 634.182 572.852 639.941 571.646 646.529C570.017 655.418 566.736 661.505 561.893 664.621C559.471 666.178 556.674 666.959 553.535 666.959Z" fill="#30596E"/>
<path d="M562.27 666.959C560.472 666.959 558.563 666.703 556.547 666.19L556.772 665.568C562.053 666.912 566.556 666.419 570.154 664.105C581.345 656.907 580.613 634.372 580.604 634.145L581.379 634.125C581.382 634.182 581.586 639.941 580.38 646.529C578.752 655.418 575.47 661.505 570.627 664.621C568.206 666.178 565.408 666.959 562.27 666.959Z" fill="#30596E"/>
<path d="M571.322 666.959C569.524 666.959 567.615 666.703 565.6 666.19L565.825 665.568C571.106 666.912 575.608 666.419 579.207 664.105C590.397 656.907 589.666 634.372 589.657 634.145L590.432 634.125C590.434 634.182 590.639 639.941 589.433 646.529C587.804 655.418 584.523 661.505 579.68 664.621C577.258 666.178 574.461 666.959 571.322 666.959Z" fill="#30596E"/>
<path d="M683.832 647.899H634.885C633.965 647.899 633.219 647.274 633.219 646.502C633.219 645.73 633.965 645.104 634.885 645.104H683.832C684.752 645.104 685.498 645.73 685.498 646.502C685.498 647.274 684.752 647.899 683.832 647.899Z" fill="white"/>
<path d="M679.956 654.828H638.755L635.402 647.854H683.309L679.956 654.828Z" fill="#94DBFF"/>
<path d="M666.362 645.326H675.829L676.635 633.968H665.557L666.362 645.326Z" fill="white"/>
<path d="M675.518 640.317L675.202 644.767H666.99L666.674 640.317H675.518Z" fill="#8CD6FF"/>
<path opacity="0.3" d="M672.16 644.768H674.444L675.08 634.879H672.796L672.16 644.768Z" fill="white"/>
<path d="M584.174 545.044L604.202 555.674L614.827 541.59C618.327 536.951 616.68 530.811 611.149 527.876C605.619 524.94 598.298 526.321 594.798 530.96L584.174 545.044Z" fill="#8CD6FF"/>
<path d="M547.292 523.466C550.937 519.117 574.876 526.747 600.996 540.61C627.116 554.473 645.586 569.351 642.462 573.977L642.487 573.99L639.774 577.586L635.172 575.143C625.445 573.858 607.615 567.075 588.632 557C569.648 546.925 554.706 536.314 549.157 529.491L544.576 527.06L547.289 523.465L547.292 523.466Z" fill="#8CD6FF"/>
<path d="M639.74 577.587C643.155 573.061 624.617 558.085 598.337 544.136C572.056 530.187 547.983 522.548 544.569 527.073C541.155 531.599 559.692 546.576 585.972 560.525C612.253 574.474 636.326 582.113 639.74 577.587Z" fill="#6BBFED"/>
<path d="M637 577.06C639.904 573.21 622.116 559.399 597.27 546.211C572.423 533.023 549.926 525.453 547.022 529.303C544.118 533.153 561.906 546.964 586.752 560.152C611.599 573.339 634.096 580.909 637 577.06Z" fill="#CCEDFF"/>
<path d="M603.781 554.411C604.41 553.577 600.432 550.518 594.896 547.58C589.359 544.641 584.361 542.935 583.731 543.77C583.102 544.604 587.08 547.662 592.617 550.601C598.153 553.54 603.152 555.246 603.781 554.411Z" fill="white"/>
<path d="M597.898 562.211C598.528 561.377 594.55 558.319 589.013 555.38C583.477 552.441 578.478 550.736 577.849 551.57C577.219 552.404 581.197 555.463 586.734 558.401C592.27 561.34 597.269 563.046 597.898 562.211Z" fill="white"/>
<path d="M574.959 544.574C575.588 543.739 571.61 540.681 566.074 537.742C560.537 534.804 555.539 533.098 554.909 533.932C554.28 534.767 558.258 537.825 563.794 540.764C569.331 543.702 574.329 545.408 574.959 544.574Z" fill="white"/>
<path d="M590.135 553.888C593.468 555.657 596.478 556.684 596.856 556.182C597.235 555.679 594.84 553.838 591.507 552.069C588.174 550.3 585.164 549.273 584.785 549.775C584.407 550.278 586.802 552.119 590.135 553.888Z" fill="white"/>
<path d="M611.268 559.202C613.605 560.442 615.715 561.163 615.981 560.81C616.247 560.458 614.567 559.167 612.23 557.927C609.893 556.687 607.784 555.967 607.518 556.319C607.252 556.671 608.931 557.962 611.268 559.202Z" fill="#6BBFED"/>
<path d="M577.409 541.45C579.746 542.691 581.856 543.411 582.122 543.058C582.387 542.706 580.708 541.415 578.371 540.175C576.034 538.935 573.924 538.215 573.659 538.567C573.393 538.919 575.072 540.21 577.409 541.45Z" fill="#6BBFED"/>
<path d="M576.441 549.364C578.103 550.246 579.604 550.759 579.793 550.508C579.981 550.258 578.787 549.339 577.125 548.457C575.463 547.575 573.962 547.063 573.774 547.314C573.585 547.564 574.779 548.482 576.441 549.364Z" fill="#6BBFED"/>
<path d="M603.865 565.355C605.527 566.237 607.028 566.749 607.217 566.499C607.405 566.248 606.211 565.33 604.549 564.448C602.887 563.566 601.386 563.054 601.197 563.304C601.009 563.554 602.203 564.473 603.865 565.355Z" fill="#6BBFED"/>
<path d="M626.724 572.049C627.354 571.215 623.376 568.156 617.839 565.218C612.303 562.279 607.304 560.573 606.675 561.408C606.045 562.242 610.023 565.301 615.56 568.239C621.097 571.178 626.095 572.884 626.724 572.049Z" fill="white"/>
<path d="M603.477 533.209C603.576 535.061 605.446 536.495 607.654 536.412L645.81 534.979C648.019 534.896 649.729 533.327 649.63 531.475C649.531 529.622 647.66 528.188 645.452 528.271L607.296 529.705C605.088 529.788 603.378 531.356 603.477 533.209Z" fill="#6BBFED"/>
<path d="M644.852 534.663C646.937 535.278 649.222 534.358 649.955 532.609L671.54 487.471C672.273 485.722 671.176 483.806 669.091 483.191C667.006 482.576 664.721 483.496 663.988 485.245L642.403 530.382C641.67 532.131 642.767 534.048 644.852 534.663Z" fill="#6BBFED"/>
<path d="M646.258 536.526C649.635 536.526 652.373 534.229 652.373 531.396C652.373 528.564 649.635 526.267 646.258 526.267C642.88 526.267 640.143 528.564 640.143 531.396C640.143 534.229 642.88 536.526 646.258 536.526Z" fill="#6BBFED"/>
<path d="M607.766 537.639C610.85 537.639 613.35 535.542 613.35 532.955C613.35 530.368 610.85 528.271 607.766 528.271C604.682 528.271 602.182 530.368 602.182 532.955C602.182 535.542 604.682 537.639 607.766 537.639Z" fill="#6BBFED"/>
<path d="M646.258 533.766C647.819 533.766 649.083 532.705 649.083 531.396C649.083 530.088 647.819 529.027 646.258 529.027C644.698 529.027 643.434 530.088 643.434 531.396C643.434 532.705 644.698 533.766 646.258 533.766Z" fill="#40A0D6"/>
<path d="M608.344 535.213C609.807 534.924 610.713 533.694 610.367 532.467C610.022 531.239 608.556 530.479 607.093 530.769C605.629 531.059 604.723 532.289 605.069 533.516C605.414 534.743 606.881 535.503 608.344 535.213Z" fill="#40A0D6"/>
<path d="M444.547 584.088C444.547 584.088 442.264 576.554 439.676 574.894C437.087 573.234 432.368 579.619 433.586 580.258C434.804 580.896 435.869 580.768 435.869 580.768C435.869 580.768 435.108 586.132 439.067 587.409C443.025 588.686 444.547 585.493 444.547 584.088Z" fill="#4BA8D6"/>
<path d="M563.009 665.436H487.751C484.585 665.436 482.018 663.282 482.018 660.626C482.018 657.97 484.585 655.817 487.751 655.817H563.009C566.176 655.817 568.743 657.97 568.743 660.626C568.743 663.283 566.176 665.436 563.009 665.436Z" fill="white"/>
<path d="M498.553 665.501C502.995 669.222 513.029 671.818 524.698 671.818C536.367 671.818 546.401 669.222 550.843 665.501H498.553Z" fill="#4BA8D6"/>
<path d="M563.623 764.772C556.931 760.077 541.813 756.802 524.233 756.802C506.652 756.802 491.534 760.077 484.842 764.772H563.623Z" fill="#4BA8D6"/>
<path d="M525.398 666.779H520.736V764.921H525.398V666.779Z" fill="#4BA8D6"/>
<path d="M528.66 701.578H517.473V760.62H528.66V701.578Z" fill="#4BA8D6"/>
<path d="M528.66 670.01H517.473V685.378H528.66V670.01Z" fill="#4BA8D6"/>
<path d="M486.798 569.737C486.798 569.737 492.041 566.515 496.334 569.393C500.628 572.272 500.591 574.759 500.591 574.759C500.591 574.759 509.004 570.989 513.548 575.906C518.092 580.823 516.104 583.749 516.104 583.749C516.104 583.749 522.044 582.332 525.991 586.152C529.938 589.972 525.055 595.3 525.055 595.3C525.055 595.3 530.674 597.275 525.433 603.994C520.192 610.714 507.863 608.392 507.863 608.392C507.863 608.392 509.695 614.829 499.642 615.358C489.588 615.888 485.158 608.999 485.158 608.999C482.253 606.34 479.188 603.706 484.072 599.858C477.573 596.382 477.674 593.802 483.132 591.951C483.132 591.951 477.244 594.949 474.737 589.048C472.23 583.147 483.354 579.129 483.354 579.129C483.354 579.129 476.162 575.07 479.334 571.754C482.507 568.439 486.798 569.737 486.798 569.737Z" fill="#0E0E0E"/>
<path d="M460.713 601.993L443.732 615.799L421.343 594.598L414.148 604.879C414.148 604.879 430.618 626.946 435.974 632.067C443.758 639.51 480.675 612.009 481.848 606.144C483.652 597.126 466.224 593.104 460.713 601.993Z" fill="white"/>
<path d="M519.002 679.26C515.344 647.45 504.06 638.132 504.06 638.132C504.06 638.132 495.073 638.132 471.191 638.132C464.945 653.823 462.992 667.743 462.773 679.26L519.002 679.26Z" fill="#231F20"/>
<path d="M464.729 656.103C470.696 657.546 486.751 655.926 500.265 652.254L512.184 646.332C512.184 646.332 500.679 632.321 501.043 630.575C502.083 625.973 504.224 618.733 505.164 611.884C505.268 611.143 505.358 610.408 505.433 609.679C505.956 604.568 505.666 599.86 503.571 596.836C498.809 589.536 468.452 593.123 465.165 597.689C461.883 602.277 459.587 607.762 459.125 611.642C458.994 612.795 459.72 615.757 460.849 619.326C461.977 622.894 463.456 627.104 464.783 630.783C466.635 635.845 464.729 656.103 464.729 656.103Z" fill="#9EDDAE"/>
<path d="M464.882 629.172C466.446 637.288 464.575 706.974 464.575 706.974C459.715 705.252 452.778 700.9 453.416 692.924C453.416 692.924 462.029 642.205 461.082 634.718C460.135 627.232 452.481 608.232 465.901 595.991C469.496 593.56 474.163 592.84 474.163 592.84C474.163 592.84 478.935 591.604 479.066 592.455C475.873 594.955 461.74 605.308 464.882 629.172Z" fill="white"/>
<path d="M469.389 578.704L473.191 589.738L475.19 595.535C475.28 595.665 475.397 595.795 475.54 595.925C477.822 598.013 486.439 599.765 490.734 596.862C492.22 595.854 491.997 593.548 491.078 590.966C489.602 586.816 486.329 581.959 485.492 580.658C484.365 578.919 483.452 577.481 483.095 576.817C479.896 577.252 472.643 578.262 469.389 578.704Z" fill="#E67A5C"/>
<path d="M473.191 589.738L475.19 595.535C475.281 595.666 475.398 595.796 475.541 595.925C476.381 595.7 477.517 595.086 478.894 593.546C481.896 590.19 478.924 581.672 478.924 581.672L473.191 589.738Z" fill="#C2674E"/>
<path d="M454.116 577.418C455.047 586.425 463.377 594.506 468.793 594.314C477.612 593.999 486.892 584.109 485.961 575.102C485.03 566.094 477.146 559.311 468.352 559.95C459.559 560.59 453.185 568.41 454.116 577.418Z" fill="#E67A5C"/>
<path d="M456.807 565.357C456.807 565.357 476.267 572.542 488.324 583.558C489.73 580.99 488.122 579.562 488.805 577.329C491.429 568.752 488.809 562.471 480.82 558.794C471.809 554.647 460.967 558.381 456.807 565.357Z" fill="#0E0E0E"/>
<path d="M459.283 566.172C459.283 566.172 454.514 569.907 454.037 576.953C452.322 569.978 455.343 555.698 473.953 557.096C492.563 558.493 459.283 566.172 459.283 566.172Z" fill="#0E0E0E"/>
<path d="M484.258 578.427C485.081 576.82 484.195 574.958 482.279 574.268C480.364 573.577 478.143 574.32 477.32 575.927C476.497 577.534 477.383 579.397 479.299 580.087C481.215 580.777 483.435 580.034 484.258 578.427Z" fill="#E67A5C"/>
<path d="M481.285 579.703C481.308 579.696 481.331 579.687 481.353 579.675C481.482 579.603 481.518 579.457 481.432 579.348C480.83 578.587 480.62 577.888 480.808 577.271C481.065 576.426 482.001 576.003 482.011 575.998C482.148 575.938 482.201 575.795 482.129 575.68C482.056 575.565 481.887 575.52 481.75 575.58C481.702 575.601 480.588 576.098 480.264 577.148C480.032 577.901 480.267 578.729 480.962 579.609C481.034 579.7 481.168 579.735 481.285 579.703Z" fill="#C2674E"/>
<path d="M463.187 585.582C463.681 585.445 464.023 585.238 464.053 585.219C464.177 585.142 464.204 584.995 464.112 584.891C464.02 584.787 463.845 584.765 463.722 584.842C463.67 584.873 462.432 585.617 461.396 584.962C461.272 584.884 461.211 584.788 461.205 584.659C461.175 583.984 462.533 582.833 463.059 582.446C463.175 582.36 463.186 582.212 463.085 582.115C462.983 582.018 462.806 582.008 462.691 582.093C462.477 582.251 460.602 583.66 460.647 584.677C460.659 584.945 460.802 585.174 461.06 585.337C461.804 585.806 462.602 585.744 463.187 585.582Z" fill="#C2674E"/>
<path d="M467.79 579.879C466.104 580.32 464.071 580.576 463.33 580.155C462.426 579.642 461.379 577.867 461.891 576.811C462.429 575.699 465.916 573.994 469.269 574.585C469.699 574.661 470.107 574.969 470.419 575.453C471.001 576.355 471.109 577.625 470.683 578.54C470.614 578.688 470.437 578.839 470.188 578.986C469.614 579.328 468.661 579.651 467.79 579.879ZM462.054 576.867C461.586 577.832 462.57 579.546 463.429 580.033C464.118 580.424 466.145 580.154 467.737 579.738C469.234 579.347 470.352 578.844 470.519 578.486C470.996 577.462 470.721 576.232 470.264 575.523C469.977 575.078 469.611 574.797 469.232 574.73C466.954 574.328 464.552 575.045 463.167 575.869C462.599 576.207 462.201 576.563 462.054 576.867Z" fill="#F0F0F0"/>
<path d="M456.015 582.195C455.502 582.278 454.262 582.441 453.848 582.149C453.168 581.67 452.672 580.806 452.585 579.946C452.531 579.407 452.647 578.966 452.911 578.705C454.413 577.221 458.049 576.954 458.894 577.532C459.783 578.14 460.009 580.14 459.59 580.799C459.496 580.947 459.32 581.093 459.087 581.231C458.378 581.653 457.135 582.013 456.015 582.195ZM459.434 580.73C459.811 580.138 459.583 578.194 458.782 577.646C457.999 577.11 454.462 577.401 453.046 578.8C452.815 579.028 452.711 579.442 452.761 579.934C452.844 580.756 453.315 581.581 453.961 582.036C454.204 582.207 454.979 582.213 455.982 582.05C457.394 581.82 459.084 581.28 459.434 580.73Z" fill="#F0F0F0"/>
<path d="M477.727 575.282C477.856 575.246 477.938 575.136 477.915 575.02C477.889 574.892 477.744 574.807 477.592 574.829L471.034 575.775C470.555 574.667 469.093 574.119 467.061 574.302C464.602 574.524 461.827 575.8 461.578 577.316C461.031 577.48 460.206 577.689 459.585 577.806C458.605 576.879 456.536 576.973 454.859 577.498C453.199 578.018 452.176 578.873 452.254 579.676C452.267 579.805 452.401 579.901 452.555 579.891C452.708 579.879 452.823 579.767 452.811 579.638C452.755 579.068 453.678 578.368 455.054 577.937C456.552 577.469 458.503 577.351 459.251 578.204C459.316 578.277 459.425 578.313 459.532 578.294C460.253 578.171 461.342 577.892 461.938 577.704C462.044 577.671 462.115 577.588 462.119 577.494C462.177 576.186 464.808 574.976 467.121 574.768C468.011 574.688 470.128 574.657 470.569 576.098C470.605 576.217 470.744 576.292 470.887 576.271L477.686 575.29C477.701 575.288 477.714 575.285 477.727 575.282Z" fill="#282828"/>
<path d="M466.966 577.787C467.266 578.382 467.837 578.748 468.24 578.605C468.643 578.462 468.727 577.863 468.426 577.268C468.125 576.673 467.555 576.306 467.152 576.449C466.748 576.593 466.665 577.191 466.966 577.787Z" fill="#0E0E0E"/>
<path d="M456.634 579.941C456.934 580.536 457.505 580.903 457.908 580.759C458.311 580.616 458.394 580.018 458.094 579.422C457.793 578.827 457.223 578.461 456.82 578.604C456.416 578.747 456.333 579.346 456.634 579.941Z" fill="#0E0E0E"/>
<path d="M457.951 587.476C457.951 587.476 460.393 581.917 462.486 581.566C464.579 581.215 477.069 579.841 477.069 579.841C477.069 579.841 478.731 582.963 482.652 580.956C483.21 585.637 476.303 594.674 470.857 594.674C461.509 594.674 457.951 587.476 457.951 587.476Z" fill="white"/>
<path d="M479.731 583.241C479.539 583.241 479.344 583.22 479.148 583.177C478.04 582.937 477.021 582.033 476.613 580.928C476.052 579.414 475.84 575.925 477.185 574.996C477.329 574.897 477.541 574.914 477.659 575.034C477.777 575.155 477.756 575.332 477.613 575.431C476.693 576.067 476.629 579.068 477.255 580.76C477.592 581.671 478.44 582.44 479.317 582.631C479.894 582.756 480.422 582.63 480.888 582.257C482.36 581.076 483.539 579.278 483.55 579.26C483.639 579.123 483.844 579.072 484.007 579.147C484.17 579.222 484.23 579.393 484.141 579.53C484.091 579.607 482.902 581.422 481.353 582.665C480.88 583.044 480.319 583.241 479.731 583.241Z" fill="white"/>
<path d="M467.2 659.331C467.2 659.331 444.677 674.083 441.113 681.307C437.549 688.532 443.142 697.697 450.864 699.939C458.586 702.181 490.712 702.043 498.138 696.811C505.563 691.58 517.99 676.521 517.692 667.552C517.395 658.583 486.209 655.594 467.2 659.331Z" fill="#231F20"/>
<path d="M440.358 686.94L429.215 760.114L439.066 761.44L462.864 690.716C462.033 675.037 441.151 677.468 440.358 686.94Z" fill="#FF9C80"/>
<path d="M417.856 776.763C417.798 775.028 424.919 770.662 424.919 770.662L429.013 759.658L439.534 758.327L443.491 764.061L429.341 775.445L417.856 776.763Z" fill="#0D0D0D"/>
<path d="M441.046 771.698L431.693 763.548L443.499 764.021L443.587 773.81L441.046 771.698Z" fill="#0D0D0D"/>
<path d="M465.529 686.968L494.932 756.493L504.436 753.948L487.646 681.824C478.473 668.145 461.143 678.214 465.529 686.968Z" fill="#FF9C80"/>
<path d="M484.968 770.982C484.633 769.269 490.992 764.142 490.992 764.142L493.29 752.777L503.503 750.274L508.341 755.512L496.139 768.384L484.968 770.982Z" fill="#0D0D0D"/>
<path d="M508.543 765.498L500.318 756.533L508.341 755.471L509.994 765.161L508.543 765.498Z" fill="#0D0D0D"/>
<path d="M532.326 685.863C532.326 685.863 525.021 696.535 487.421 700.886H486.244C486.244 700.886 486.136 676.757 486.527 655.51C486.675 647.418 484.648 612.967 491.543 596.195C493.069 593.66 491.253 592.693 491.371 591.77C497.999 592.055 500.861 592.995 505.792 596.157C512.598 601.126 511.625 630.153 511.625 630.153L532.326 685.863Z" fill="white"/>
<path d="M504.278 615.064C504.278 615.064 503.803 647.127 487.422 657.253C487.57 649.161 487.792 641.488 488.117 635.724C497.298 631.409 504.278 615.064 504.278 615.064Z" fill="#D9F2FF"/>
<path d="M453.513 626.919L444.737 624.253L444.098 628.2L451.09 632.19L453.513 626.919Z" fill="#4BA8D6"/>
<path d="M442.459 623.489L428.753 616.11L428.909 616.148L424.174 615.94L424.175 615.826L428.912 615.66L428.991 615.658L429.067 615.699L442.773 623.079L442.459 623.489Z" fill="#3A312F"/>
<path d="M446.088 624.801C446.088 624.801 436.808 619.003 435.886 619.472C434.964 619.942 437.861 622.307 437.861 622.307C437.861 622.307 436.444 621.739 436.055 622.346C435.566 623.108 437.181 623.838 437.181 623.838C437.181 623.838 436.091 624.064 436.055 624.571C436.019 625.077 437.15 625.952 437.15 625.952C437.15 625.952 435.64 626.256 435.882 626.892C436.125 627.529 437.056 629.354 441.852 630.193C446.647 631.033 449.611 626.776 446.088 624.801Z" fill="#4BA8D6"/>
<path d="M447.393 625.922C447.393 625.922 445.696 622.708 444.547 622.019C443.397 621.331 439.729 620.366 439.729 620.366C439.729 620.366 439.017 620.733 439.948 621.744C440.879 622.754 443.616 623.764 443.616 623.764C443.616 623.764 446.08 627.116 447.393 625.922Z" fill="#4BA8D6"/>
<path d="M486.632 608.94L476.235 630.879L448.451 625.094L446.529 637.784C446.529 637.784 475.576 647.728 483.604 646.694C491.631 645.66 509.046 614.157 508.323 608.241C507.21 599.144 489.135 599.144 486.632 608.94Z" fill="white"/>
<path d="M440.942 578.425L426.896 571.511C426.377 571.261 425.708 571.412 425.408 571.849L424.766 572.783L424.43 572.62L425.072 571.686C425.479 571.095 426.384 570.89 427.09 571.229L441.138 578.144L440.942 578.425Z" fill="#3A312F"/>
<path d="M425.363 571.807C425.76 572.011 425.531 572.93 424.852 573.858C424.173 574.787 423.3 575.374 422.904 575.169C422.507 574.965 422.736 574.047 423.415 573.118C424.094 572.19 424.966 571.603 425.363 571.807Z" fill="#3A312F"/>
<path d="M424.979 572.334C425.203 572.45 425.007 573.06 424.54 573.698C424.074 574.335 423.514 574.758 423.29 574.643C423.066 574.528 423.262 573.917 423.729 573.28C424.195 572.642 424.755 572.219 424.979 572.334Z" fill="white"/>
<path d="M438.288 575.481C438.112 575.579 436.528 576.072 437.232 577.499C437.936 578.926 439.344 579.221 439.344 579.221C439.344 579.221 437.584 582.322 438.464 583.503L443.51 581.731C442.571 578.926 438.464 575.383 438.288 575.481Z" fill="#4BA8D6"/>
<path d="M467.723 611.782C467.704 611.782 467.686 611.777 467.67 611.768L462.311 608.829C462.267 608.804 462.254 608.754 462.283 608.716C462.312 608.678 462.373 608.668 462.417 608.692L467.776 611.632C467.82 611.657 467.833 611.707 467.804 611.745C467.785 611.769 467.754 611.782 467.723 611.782Z" fill="#3A312F"/>
<path d="M438.381 583.547C437.555 582.439 438.925 579.792 439.208 579.272C438.853 579.17 437.748 578.761 437.141 577.531C436.699 576.634 437.038 575.935 438.149 575.452C438.188 575.435 438.217 575.423 438.233 575.414C438.256 575.402 438.294 575.39 438.349 575.407C438.846 575.561 442.693 578.993 443.602 581.71L443.416 581.754C442.533 579.117 438.768 575.778 438.304 575.568C438.286 575.576 438.264 575.586 438.239 575.597C437.863 575.759 436.722 576.255 437.32 577.468C437.996 578.838 439.353 579.14 439.367 579.143L439.482 579.167L439.431 579.257C439.414 579.287 437.703 582.331 438.546 583.461L438.381 583.547Z" fill="#3A312F"/>
<path d="M417.674 645.217L416.43 647.024L430.351 653.766L431.595 651.959L417.674 645.217Z" fill="#4BA8D6"/>
<path d="M657.15 686.352C657.15 686.352 664.608 690.463 667.591 690.999C670.574 691.535 682.507 688.318 684.211 689.926C685.916 691.535 671.852 700.114 668.017 700.65C664.181 701.186 649.053 692.786 649.053 692.786L657.15 686.352Z" fill="#FFA599"/>
<path d="M528.509 650.587C528.509 650.587 588.35 641.635 599.076 645.937C609.802 650.24 657.148 686.352 657.148 686.352L652.706 693.659C652.706 693.659 590.216 668.625 586.485 668.233C582.754 667.842 521.196 687.791 511.87 683.489C502.542 679.186 518.1 651.325 528.509 650.587Z" fill="#30596E"/>
<path d="M509.241 719.128C499.023 719.128 490.711 712.156 490.711 703.586C490.711 695.016 499.023 688.043 509.241 688.043C519.458 688.043 527.77 695.016 527.77 703.586C527.77 712.156 519.458 719.128 509.241 719.128ZM509.241 689.972C500.291 689.972 493.01 696.079 493.01 703.586C493.01 711.092 500.291 717.199 509.241 717.199C518.19 717.199 525.471 711.092 525.471 703.586C525.471 696.079 518.19 689.972 509.241 689.972Z" fill="#4BA8D6"/>
<path d="M519.655 690.365L509.665 704.057C508.177 706.096 508.984 708.764 511.452 709.96L553.651 730.424C555.929 731.529 558.837 730.988 560.345 729.179L573.342 713.592L519.655 690.365Z" fill="#4BA8D6"/>
<path d="M656.623 708.61L650.632 710.166L585.299 727.138C574.196 728.471 562.901 726.274 553.628 720.981L504.885 696.243L497.312 692.402L495.068 691.262L496.466 691.036L558.703 681.026C571.559 679.279 592.102 678.114 605.926 684.127L656.623 708.61Z" fill="#6BC3F0"/>
<path d="M656.624 708.144L650.632 709.7C634.079 702.171 594.061 684.173 588.663 683.639C581.832 682.966 508.709 696.446 508.709 696.446L504.886 695.777L497.313 691.935L496.467 690.57L558.703 680.559C571.56 678.812 592.102 677.647 605.927 683.66L656.624 708.144Z" fill="#4BA8D6"/>
<path d="M686.013 709.435L606.31 672.53C599.479 669.367 590.563 669.6 582.813 670.365L509.516 680.906C503.608 681.489 500.095 679.211 494.912 676.761L434.775 648.33C431.795 646.904 428.018 647.542 425.928 649.824C423.372 652.615 424.372 656.658 428.039 658.367L494.464 688.604C499.647 690.963 505.585 691.894 511.434 691.263L581.024 681.228C588.867 680.383 597.455 680.067 604.389 683.255L680.294 718.154C683.141 719.463 686.714 718.61 688.311 716.239C689.934 713.829 688.902 710.772 686.013 709.435Z" fill="white"/>
<path d="M421.38 648.1C419.371 650.674 415.216 651.402 412.147 649.716L390.856 638.024C387.787 636.339 386.92 632.854 388.929 630.28C390.938 627.706 395.093 626.979 398.161 628.664L419.453 640.356C422.522 642.042 423.389 645.526 421.38 648.1Z" fill="white"/>
<path d="M516.533 679.598C520.831 674.324 526.876 665.483 528.505 650.587C522.948 650.161 509.657 652.09 503.979 648.905C498.301 645.719 485.904 634.163 481.394 632.734C476.884 631.306 472.169 630.108 460.97 631.631C452.803 632.741 448.48 632.645 441.972 639.708C431.626 650.934 449.21 655.648 463.425 662.038C467.688 663.317 487.277 672.733 502.509 680.151C507.506 681.465 511.89 680.904 516.533 679.598Z" fill="#FD5655"/>
<path d="M456.342 634.682C458.722 635.969 447.68 645.832 440.829 645.463L433.211 639.11L441.545 628.274L451.227 632.467L456.342 634.682Z" fill="#FFA599"/>
<path d="M429.036 611.134C441.788 615.227 447.962 624.349 446.934 632.395C442.841 640.393 427.315 643.506 414.994 638.571C403.387 633.921 397.442 624.517 401.121 617.329C404.8 610.141 417.022 607.279 429.036 611.134Z" fill="#FFA599"/>
<path d="M464.831 646.902L486.479 659.121L536.137 658.918L534.849 664.857C534.849 664.857 490.897 669.586 484.541 670.296C478.184 671.006 451.629 656.866 451.629 656.866C442.91 652.001 449.833 642.538 464.831 646.902Z" fill="#FFA599"/>
<path d="M563.304 724.841C562.615 725.841 561.09 726.184 559.897 725.607L422.349 657.788C421.156 657.21 420.747 655.931 421.436 654.93C422.125 653.93 423.65 653.587 424.843 654.164L562.391 721.983C563.584 722.561 563.993 723.84 563.304 724.841Z" fill="#4BA8D6"/>
<path d="M417.846 653.165C418.59 652.195 418.246 650.903 417.08 650.29L387.83 634.933C386.657 634.328 385.121 634.635 384.399 635.619C383.678 636.603 384.044 637.892 385.217 638.497L414.433 653.837C415.579 654.438 417.089 654.155 417.819 653.201C417.828 653.189 417.837 653.177 417.846 653.165Z" fill="#4BA8D6"/>
<path d="M554.242 664.514L546.006 673.524L497.296 680.898C483.689 682.8 481.437 678.644 480.391 672C480.391 672 554.478 664.256 554.242 664.514Z" fill="#65BBE6"/>
<path d="M554.934 666.288L479.834 674.608C478.561 674.749 477.393 673.997 477.225 672.93C477.057 671.862 477.953 670.883 479.225 670.742L554.326 662.422C555.598 662.281 556.766 663.032 556.934 664.1C557.103 665.167 556.207 666.147 554.934 666.288Z" fill="white"/>
<path d="M489.132 678.742C490.05 678.742 490.795 678.118 490.795 677.347C490.795 676.577 490.05 675.952 489.132 675.952C488.213 675.952 487.469 676.577 487.469 677.347C487.469 678.118 488.213 678.742 489.132 678.742Z" fill="#4BA8D6"/>
<path d="M624.424 754.679L598.423 703.619C594.172 698.932 587.001 696.82 580.189 698.248C567.859 700.834 562.785 713.209 570.612 721.608L587.417 754.679H624.424Z" fill="#4BA8D6"/>
<path d="M583.979 717.343C587.183 717.343 589.781 715.164 589.781 712.477C589.781 709.789 587.183 707.611 583.979 707.611C580.775 707.611 578.178 709.789 578.178 712.477C578.178 715.164 580.775 717.343 583.979 717.343Z" fill="#65BBE6"/>
<path d="M563.695 756.288L623.231 738.311L635.819 756.574L563.695 756.288Z" fill="#6BC3F0"/>
<path d="M618.506 751.959C620.311 751.959 621.775 750.732 621.775 749.217C621.775 747.703 620.311 746.475 618.506 746.475C616.7 746.475 615.236 747.703 615.236 749.217C615.236 750.732 616.7 751.959 618.506 751.959Z" fill="#4BA8D6"/>
<path d="M535.952 658.68C535.952 658.68 551.181 658.862 554.009 661.599C556.838 664.337 536.278 665.158 533.994 664.245C531.709 663.333 532.144 659.775 535.952 658.68Z" fill="#FFA599"/>
<path d="M422.781 609.025C422.781 609.025 429.585 608.898 434.574 618.283C436.447 621.805 436.791 630.41 439.235 633.295C442.691 637.375 448.05 637.376 451.266 638.918C456.756 641.549 449.376 652.614 458.829 660.832C446.672 658.858 416.187 641.554 409.325 636.291C402.462 631.028 395.113 623.609 402.37 613.971C408.418 608.264 416.457 608.041 422.781 609.025Z" fill="#0E0E0E"/>
<path d="M654.749 764.5H512.125V763.234C512.125 757.983 517.199 753.727 523.459 753.727H643.416C649.675 753.727 654.749 757.983 654.749 763.234L654.749 764.5Z" fill="#4BA8D6"/>
<g filter="url(#filter0_f_413_2122)">
<ellipse cx="568.5" cy="484" rx="168.5" ry="103" fill="url(#paint0_radial_413_2122)" fill-opacity="0.64"/>
</g>
<defs>
<filter id="filter0_f_413_2122" x="0" y="-19" width="1137" height="1006" filterUnits="userSpaceOnUse" color-interpolation-filters="sRGB">
<feFlood flood-opacity="0" result="BackgroundImageFix"/>
<feBlend mode="normal" in="SourceGraphic" in2="BackgroundImageFix" result="shape"/>
<feGaussianBlur stdDeviation="200" result="effect1_foregroundBlur_413_2122"/>
</filter>
<radialGradient id="paint0_radial_413_2122" cx="0" cy="0" r="1" gradientUnits="userSpaceOnUse" gradientTransform="translate(233.177 -134) rotate(51.6138) scale(1271.72 4757.15)">
<stop offset="0.175497" stop-color="#9D2CAF"/>
<stop offset="0.275566" stop-color="#28A734"/>
<stop offset="0.49892" stop-color="#2C67AB"/>
<stop offset="0.565292" stop-color="#27479B"/>
<stop offset="0.656871" stop-color="#1F2CA0"/>
</radialGradient>
</defs>
</svg>
