<svg width="167" height="26" viewBox="0 0 167 26" fill="none" xmlns="http://www.w3.org/2000/svg">
<path d="M12.2145 3.6671C12.5895 2.51285 14.2224 2.51285 14.5975 3.6671L16.0078 8.00758C16.1755 8.52377 16.6565 8.87327 17.1993 8.87327H21.7632C22.9768 8.87327 23.4814 10.4263 22.4995 11.1397L18.8073 13.8222C18.3682 14.1412 18.1845 14.7067 18.3522 15.2229L19.7625 19.5634C20.1375 20.7177 18.8165 21.6775 17.8346 20.9641L14.1424 18.2816C13.7033 17.9625 13.1087 17.9625 12.6696 18.2816L8.97733 20.9641C7.99547 21.6775 6.67439 20.7177 7.04942 19.5634L8.45973 15.2229C8.62745 14.7067 8.44372 14.1412 8.00462 13.8222L4.31238 11.1397C3.33052 10.4263 3.83513 8.87327 5.04878 8.87327H9.61263C10.1554 8.87327 10.6364 8.52378 10.8041 8.00758L12.2145 3.6671Z" fill="#FDC62E"/>
<path d="M47.2936 3.6671C47.6686 2.51285 49.3015 2.51285 49.6766 3.6671L51.0869 8.00758C51.2546 8.52377 51.7356 8.87327 52.2784 8.87327H56.8423C58.0559 8.87327 58.5605 10.4263 57.5786 11.1397L53.8864 13.8222C53.4473 14.1412 53.2636 14.7067 53.4313 15.2229L54.8416 19.5634C55.2166 20.7177 53.8956 21.6775 52.9137 20.9641L49.2215 18.2816C48.7824 17.9625 48.1878 17.9625 47.7487 18.2816L44.0564 20.9641C43.0746 21.6775 41.7535 20.7177 42.1285 19.5634L43.5388 15.2229C43.7066 14.7067 43.5228 14.1412 43.0837 13.8222L39.3915 11.1397C38.4096 10.4263 38.9142 8.87327 40.1279 8.87327H44.6917C45.2345 8.87327 45.7155 8.52378 45.8832 8.00758L47.2936 3.6671Z" fill="#FDC62E"/>
<path d="M82.3727 3.6671C82.7477 2.51285 84.3806 2.51285 84.7557 3.6671L86.166 8.00758C86.3337 8.52377 86.8147 8.87327 87.3575 8.87327H91.9214C93.135 8.87327 93.6396 10.4263 92.6577 11.1397L88.9655 13.8222C88.5264 14.1412 88.3427 14.7067 88.5104 15.2229L89.9207 19.5634C90.2957 20.7177 88.9747 21.6775 87.9928 20.9641L84.3006 18.2816C83.8615 17.9625 83.2669 17.9625 82.8278 18.2816L79.1355 20.9641C78.1537 21.6775 76.8326 20.7177 77.2076 19.5634L78.6179 15.2229C78.7857 14.7067 78.6019 14.1412 78.1628 13.8222L74.4706 11.1397C73.4887 10.4263 73.9933 8.87327 75.207 8.87327H79.7708C80.3136 8.87327 80.7946 8.52378 80.9623 8.00758L82.3727 3.6671Z" fill="#FDC62E"/>
<path d="M117.452 3.6671C117.827 2.51285 119.46 2.51285 119.835 3.6671L121.245 8.00758C121.413 8.52377 121.894 8.87327 122.437 8.87327H127C128.214 8.87327 128.719 10.4263 127.737 11.1397L124.045 13.8222C123.606 14.1412 123.422 14.7067 123.589 15.2229L125 19.5634C125.375 20.7177 124.054 21.6775 123.072 20.9641L119.38 18.2816C118.941 17.9625 118.346 17.9625 117.907 18.2816L114.215 20.9641C113.233 21.6775 111.912 20.7177 112.287 19.5634L113.697 15.2229C113.865 14.7067 113.681 14.1412 113.242 13.8222L109.55 11.1397C108.568 10.4263 109.072 8.87327 110.286 8.87327H114.85C115.393 8.87327 115.874 8.52378 116.041 8.00758L117.452 3.6671Z" fill="#FDC62E"/>
<path d="M152.532 3.6671C152.907 2.51285 154.54 2.51285 154.915 3.6671L156.325 8.00758C156.493 8.52377 156.974 8.87327 157.517 8.87327H162.081C163.294 8.87327 163.799 10.4263 162.817 11.1397L159.125 13.8222C158.686 14.1412 158.502 14.7067 158.67 15.2229L160.08 19.5634C160.455 20.7177 159.134 21.6775 158.152 20.9641L154.46 18.2816C154.021 17.9625 153.426 17.9625 152.987 18.2816L149.295 20.9641C148.313 21.6775 146.992 20.7177 147.367 19.5634L148.777 15.2229C148.945 14.7067 148.761 14.1412 148.322 13.8222L144.63 11.1397C143.648 10.4263 144.153 8.87327 145.366 8.87327H149.93C150.473 8.87327 150.954 8.52378 151.122 8.00758L152.532 3.6671Z" fill="#FDC62E"/>
</svg>
