<svg width="33" height="32" viewBox="0 0 33 32" fill="none" xmlns="http://www.w3.org/2000/svg">
<path d="M22.5 7H10.5C8.11305 7 5.82387 7.94821 4.13604 9.63604C2.44821 11.3239 1.5 13.6131 1.5 16C1.5 18.3869 2.44821 20.6761 4.13604 22.364C5.82387 24.0518 8.11305 25 10.5 25H22.5C24.8869 25 27.1761 24.0518 28.864 22.364C30.5518 20.6761 31.5 18.3869 31.5 16C31.5 13.6131 30.5518 11.3239 28.864 9.63604C27.1761 7.94821 24.8869 7 22.5 7ZM22.5 23H10.5C8.64348 23 6.86301 22.2625 5.55025 20.9497C4.2375 19.637 3.5 17.8565 3.5 16C3.5 14.1435 4.2375 12.363 5.55025 11.0503C6.86301 9.7375 8.64348 9 10.5 9H22.5C24.3565 9 26.137 9.7375 27.4497 11.0503C28.7625 12.363 29.5 14.1435 29.5 16C29.5 17.8565 28.7625 19.637 27.4497 20.9497C26.137 22.2625 24.3565 23 22.5 23ZM10.5 11C9.51109 11 8.54439 11.2932 7.72215 11.8427C6.8999 12.3921 6.25904 13.173 5.8806 14.0866C5.50216 15.0002 5.40315 16.0055 5.59607 16.9755C5.789 17.9454 6.2652 18.8363 6.96447 19.5355C7.66373 20.2348 8.55464 20.711 9.52455 20.9039C10.4945 21.0969 11.4998 20.9978 12.4134 20.6194C13.327 20.241 14.1079 19.6001 14.6573 18.7779C15.2068 17.9556 15.5 16.9889 15.5 16C15.5 14.6739 14.9732 13.4021 14.0355 12.4645C13.0979 11.5268 11.8261 11 10.5 11ZM10.5 19C9.90666 19 9.32664 18.8241 8.83329 18.4944C8.33994 18.1648 7.95542 17.6962 7.72836 17.1481C7.5013 16.5999 7.44189 15.9967 7.55764 15.4147C7.6734 14.8328 7.95912 14.2982 8.37868 13.8787C8.79824 13.4591 9.33279 13.1734 9.91473 13.0576C10.4967 12.9419 11.0999 13.0013 11.6481 13.2284C12.1962 13.4554 12.6648 13.8399 12.9944 14.3333C13.3241 14.8266 13.5 15.4067 13.5 16C13.5 16.7956 13.1839 17.5587 12.6213 18.1213C12.0587 18.6839 11.2956 19 10.5 19Z" fill="#BBBBBB"/>
</svg>
