<svg width="28" height="28" viewBox="0 0 28 28" fill="none" xmlns="http://www.w3.org/2000/svg">
<path d="M18.8999 15.0502C18.8999 15.0502 18.7833 15.0502 18.8999 15.0502C18.6666 14.9335 18.5499 14.8168 18.3166 14.8168C21.3499 12.4835 21.9333 8.05018 19.4833 5.01685C17.0333 1.98351 12.7166 1.40018 9.68325 3.85018C6.64992 6.30018 6.06659 10.6168 8.51659 13.6502C8.86659 14.1168 9.21659 14.4668 9.68325 14.8168C9.56659 14.9335 9.33325 14.9335 9.21659 15.0502C9.21659 15.0502 9.21659 15.0502 9.09992 15.0502C5.36659 16.8002 2.79992 20.3002 2.33325 24.3835C2.33325 24.9668 2.79992 25.5502 3.49992 25.6668H24.4999C25.0833 25.5502 25.5499 24.9668 25.5499 24.3835C25.1999 20.3002 22.6333 16.8002 18.8999 15.0502ZM9.33325 8.86685C9.56659 6.30018 11.8999 4.43351 14.3499 4.66685C16.5666 4.90018 18.3166 6.65018 18.5499 8.86685H9.33325ZM13.9999 18.9002L11.7833 16.6835C13.2999 16.3335 14.8166 16.3335 16.3333 16.6835L13.9999 18.9002Z" fill="#010812"/>
</svg>
