<svg width="28" height="28" viewBox="0 0 28 28" fill="none" xmlns="http://www.w3.org/2000/svg">
<path d="M7.01314 16.166C7.0161 16.2253 7.00698 16.2846 6.98633 16.3402C6.96568 16.3958 6.93392 16.4467 6.89299 16.4896C6.85207 16.5326 6.80283 16.5668 6.74827 16.5901C6.69371 16.6135 6.63498 16.6255 6.57564 16.6254H1.75001C1.55252 16.6257 1.36073 16.5592 1.20584 16.4367C1.05095 16.3141 0.942063 16.1428 0.896887 15.9506C0.868757 15.819 0.870054 15.6828 0.900685 15.5518C0.931316 15.4207 0.990524 15.2981 1.07407 15.1926C1.84605 14.1688 2.87033 13.3627 4.04689 12.8531C3.53034 12.3821 3.13416 11.7942 2.89153 11.1387C2.64891 10.4831 2.5669 9.77893 2.65237 9.08515C2.73784 8.39138 2.98832 7.72818 3.3828 7.15111C3.77729 6.57404 4.30432 6.0999 4.91973 5.76839C5.53515 5.43689 6.22104 5.25767 6.91996 5.24575C7.61888 5.23384 8.31048 5.38957 8.93684 5.6999C9.5632 6.01023 10.1061 6.46614 10.52 7.02942C10.9339 7.59271 11.2069 8.24698 11.3159 8.93744C11.33 9.03029 11.3134 9.1252 11.2686 9.20773C11.2238 9.29026 11.1532 9.35589 11.0677 9.39463C9.85403 9.9557 8.82621 10.8522 8.10547 11.9784C7.38473 13.1045 7.00116 14.4134 7.00001 15.7504C7.00001 15.8904 7.00001 16.0282 7.01314 16.166ZM26.9194 15.1915C26.1492 14.1689 25.1273 13.3633 23.9531 12.8531C24.4697 12.3821 24.8659 11.7942 25.1085 11.1387C25.3511 10.4831 25.4331 9.77893 25.3477 9.08515C25.2622 8.39138 25.0117 7.72818 24.6172 7.15111C24.2227 6.57404 23.6957 6.0999 23.0803 5.76839C22.4649 5.43689 21.779 5.25767 21.0801 5.24575C20.3811 5.23384 19.6895 5.38957 19.0632 5.6999C18.4368 6.01023 17.8939 6.46614 17.48 7.02942C17.0661 7.59271 16.7931 8.24698 16.6841 8.93744C16.67 9.03029 16.6866 9.1252 16.7314 9.20773C16.7763 9.29026 16.8468 9.35589 16.9324 9.39463C18.146 9.9557 19.1738 10.8522 19.8946 11.9784C20.6153 13.1045 20.9989 14.4134 21 15.7504C21 15.8904 21 16.0282 20.9869 16.166C20.9839 16.2253 20.993 16.2846 21.0137 16.3402C21.0343 16.3958 21.0661 16.4467 21.107 16.4896C21.148 16.5326 21.1972 16.5668 21.2518 16.5901C21.3063 16.6135 21.365 16.6255 21.4244 16.6254H26.25C26.4475 16.6257 26.6393 16.5592 26.7942 16.4367C26.9491 16.3141 27.058 16.1428 27.1031 15.9506C27.1314 15.8187 27.1301 15.6823 27.0993 15.551C27.0685 15.4197 27.0089 15.297 26.9249 15.1915H26.9194ZM17.185 19.9143C18.0562 19.2471 18.6965 18.3236 19.0158 17.2737C19.3351 16.2238 19.3173 15.1003 18.9651 14.061C18.6128 13.0217 17.9438 12.1189 17.0519 11.4795C16.1601 10.8401 15.0903 10.4962 13.9929 10.4962C12.8955 10.4962 11.8257 10.8401 10.9339 11.4795C10.0421 12.1189 9.37299 13.0217 9.02073 14.061C8.66848 15.1003 8.65075 16.2238 8.97003 17.2737C9.28932 18.3236 9.92957 19.2471 10.8008 19.9143C9.25482 20.5842 7.9639 21.7314 7.11704 23.1879C7.04024 23.3209 6.99981 23.4718 6.99982 23.6255C6.99982 23.7791 7.04027 23.93 7.11709 24.063C7.19391 24.196 7.3044 24.3065 7.43744 24.3833C7.57049 24.46 7.7214 24.5004 7.87501 24.5004H20.125C20.2786 24.5004 20.4295 24.46 20.5626 24.3833C20.6956 24.3065 20.8061 24.196 20.8829 24.063C20.9598 23.93 21.0002 23.7791 21.0002 23.6255C21.0002 23.4718 20.9598 23.3209 20.883 23.1879C20.0343 21.7304 18.741 20.5831 17.1927 19.9143H17.185Z" fill="#010812"/>
</svg>
