<svg width="29" height="25" viewBox="0 0 29 25" fill="none" xmlns="http://www.w3.org/2000/svg">
<path d="M28.5 15V23C28.5 23.5304 28.2893 24.0391 27.9142 24.4142C27.5391 24.7893 27.0304 25 26.5 25H2.5C1.96957 25 1.46086 24.7893 1.08579 24.4142C0.710714 24.0391 0.5 23.5304 0.5 23V15C0.5 14.4696 0.710714 13.9609 1.08579 13.5858C1.46086 13.2107 1.96957 13 2.5 13H7.5C7.76522 13 8.01957 13.1054 8.20711 13.2929C8.39464 13.4804 8.5 13.7348 8.5 14C8.5 14.2652 8.39464 14.5196 8.20711 14.7071C8.01957 14.8946 7.76522 15 7.5 15H2.5V23H26.5V15H21.5C21.2348 15 20.9804 14.8946 20.7929 14.7071C20.6054 14.5196 20.5 14.2652 20.5 14C20.5 13.7348 20.6054 13.4804 20.7929 13.2929C20.9804 13.1054 21.2348 13 21.5 13H26.5C27.0304 13 27.5391 13.2107 27.9142 13.5858C28.2893 13.9609 28.5 14.4696 28.5 15ZM13.7925 14.7075C13.8854 14.8005 13.9957 14.8742 14.1171 14.9246C14.2385 14.9749 14.3686 15.0008 14.5 15.0008C14.6314 15.0008 14.7615 14.9749 14.8829 14.9246C15.0043 14.8742 15.1146 14.8005 15.2075 14.7075L21.2075 8.7075C21.3951 8.51986 21.5006 8.26536 21.5006 8C21.5006 7.73464 21.3951 7.48014 21.2075 7.2925C21.0199 7.10486 20.7654 6.99944 20.5 6.99944C20.2346 6.99944 19.9801 7.10486 19.7925 7.2925L15.5 11.5863V1C15.5 0.734784 15.3946 0.48043 15.2071 0.292893C15.0196 0.105357 14.7652 0 14.5 0C14.2348 0 13.9804 0.105357 13.7929 0.292893C13.6054 0.48043 13.5 0.734784 13.5 1V11.5863L9.2075 7.2925C9.01986 7.10486 8.76536 6.99944 8.5 6.99944C8.23464 6.99944 7.98014 7.10486 7.7925 7.2925C7.60486 7.48014 7.49944 7.73464 7.49944 8C7.49944 8.26536 7.60486 8.51986 7.7925 8.7075L13.7925 14.7075ZM23.5 19C23.5 18.7033 23.412 18.4133 23.2472 18.1666C23.0824 17.92 22.8481 17.7277 22.574 17.6142C22.2999 17.5007 21.9983 17.4709 21.7074 17.5288C21.4164 17.5867 21.1491 17.7296 20.9393 17.9393C20.7296 18.1491 20.5867 18.4164 20.5288 18.7074C20.4709 18.9983 20.5007 19.2999 20.6142 19.574C20.7277 19.8481 20.92 20.0824 21.1666 20.2472C21.4133 20.412 21.7033 20.5 22 20.5C22.3978 20.5 22.7794 20.342 23.0607 20.0607C23.342 19.7794 23.5 19.3978 23.5 19Z" fill="#60D66A"/>
</svg>
