<svg width="32" height="32" viewBox="0 0 32 32" fill="none" xmlns="http://www.w3.org/2000/svg">
<path d="M20.555 13.1675L14.555 9.1675C14.4044 9.067 14.2293 9.00928 14.0484 9.00052C13.8675 8.99176 13.6877 9.03227 13.528 9.11774C13.3684 9.20321 13.2349 9.33043 13.1419 9.48581C13.0489 9.6412 12.9999 9.81891 13 10V18C12.9999 18.1811 13.0489 18.3588 13.1419 18.5142C13.2349 18.6696 13.3684 18.7968 13.528 18.8823C13.6877 18.9677 13.8675 19.0082 14.0484 18.9995C14.2293 18.9907 14.4044 18.933 14.555 18.8325L20.555 14.8325C20.6922 14.7412 20.8047 14.6175 20.8825 14.4722C20.9603 14.327 21.001 14.1648 21.001 14C21.001 13.8352 20.9603 13.673 20.8825 13.5278C20.8047 13.3825 20.6922 13.2588 20.555 13.1675ZM15 16.1313V11.875L18.1975 14L15 16.1313ZM27 5H5C4.46957 5 3.96086 5.21071 3.58579 5.58579C3.21071 5.96086 3 6.46957 3 7V21C3 21.5304 3.21071 22.0391 3.58579 22.4142C3.96086 22.7893 4.46957 23 5 23H27C27.5304 23 28.0391 22.7893 28.4142 22.4142C28.7893 22.0391 29 21.5304 29 21V7C29 6.46957 28.7893 5.96086 28.4142 5.58579C28.0391 5.21071 27.5304 5 27 5ZM27 21H5V7H27V21ZM29 26C29 26.2652 28.8946 26.5196 28.7071 26.7071C28.5196 26.8946 28.2652 27 28 27H4C3.73478 27 3.48043 26.8946 3.29289 26.7071C3.10536 26.5196 3 26.2652 3 26C3 25.7348 3.10536 25.4804 3.29289 25.2929C3.48043 25.1054 3.73478 25 4 25H28C28.2652 25 28.5196 25.1054 28.7071 25.2929C28.8946 25.4804 29 25.7348 29 26Z" fill="white"/>
</svg>
