<svg width="33" height="33" viewBox="0 0 33 33" fill="none" xmlns="http://www.w3.org/2000/svg">
<rect x="0.735352" y="0.5" width="32" height="32" rx="16" fill="url(#paint0_linear_106_729)"/>
<path d="M7.02979 25.8087L8.4017 20.8268C7.55352 19.3646 7.10858 17.7086 7.11321 16.0157C7.11321 10.7109 11.4514 6.39795 16.7768 6.39795C19.3631 6.39795 21.7917 7.39893 23.6132 9.21638C25.4394 11.0338 26.4451 13.4509 26.4405 16.0203C26.4405 21.325 22.1023 25.638 16.7722 25.638H16.7676C15.15 25.638 13.5603 25.2321 12.1466 24.4663L7.02979 25.8087ZM12.3923 22.7273L12.6843 22.9026C13.9172 23.6314 15.3308 24.0143 16.7722 24.0189H16.7768C21.2031 24.0189 24.809 20.4347 24.809 16.0249C24.809 13.8892 23.9747 11.8826 22.4592 10.3696C20.9436 8.85658 18.9228 8.02627 16.7768 8.02627C12.3506 8.02166 8.74467 11.6058 8.74467 16.0157C8.74467 17.5241 9.16644 18.9955 9.97291 20.2687L10.1629 20.5731L9.35184 23.5207L12.3923 22.7273Z" fill="white"/>
<path d="M7.36816 25.4721L8.69373 20.6609C7.87336 19.254 7.44232 17.6534 7.44232 16.0205C7.44696 10.9002 11.6322 6.73486 16.7769 6.73486C19.2751 6.73486 21.6157 7.70355 23.3769 9.45642C25.1381 11.2093 26.1068 13.5434 26.1068 16.0251C26.1068 21.1453 21.9169 25.3107 16.7769 25.3107H16.7722C15.2103 25.3107 13.6762 24.9186 12.3135 24.1805L7.36816 25.4721Z" fill="url(#paint1_linear_106_729)"/>
<path d="M7.02979 25.8087L8.4017 20.8268C7.55352 19.3646 7.10858 17.7086 7.11321 16.0157C7.11321 10.7109 11.4514 6.39795 16.7768 6.39795C19.3631 6.39795 21.7917 7.39893 23.6132 9.21638C25.4394 11.0338 26.4451 13.4509 26.4405 16.0203C26.4405 21.325 22.1023 25.638 16.7722 25.638H16.7676C15.15 25.638 13.5603 25.2321 12.1466 24.4663L7.02979 25.8087ZM12.3923 22.7273L12.6843 22.9026C13.9172 23.6314 15.3308 24.0143 16.7722 24.0189H16.7768C21.2031 24.0189 24.809 20.4347 24.809 16.0249C24.809 13.8892 23.9747 11.8826 22.4592 10.3696C20.9436 8.85658 18.9228 8.02627 16.7768 8.02627C12.3506 8.02166 8.74467 11.6058 8.74467 16.0157C8.74467 17.5241 9.16644 18.9955 9.97291 20.2687L10.1629 20.5731L9.35184 23.5207L12.3923 22.7273Z" fill="url(#paint2_linear_106_729)"/>
<path fill-rule="evenodd" clip-rule="evenodd" d="M14.3622 11.9935C14.1814 11.5922 13.9914 11.583 13.8199 11.5783C13.6809 11.5737 13.5187 11.5737 13.3564 11.5737C13.1942 11.5737 12.9347 11.6337 12.7122 11.8736C12.4897 12.1134 11.8687 12.6946 11.8687 13.8801C11.8687 15.061 12.7354 16.205 12.8559 16.3664C12.9764 16.5279 14.529 19.0326 16.9809 19.9967C19.0202 20.7994 19.4373 20.6379 19.8777 20.5964C20.318 20.5549 21.3052 20.0152 21.5091 19.4524C21.7084 18.8896 21.7084 18.4099 21.6482 18.3084C21.5879 18.207 21.4257 18.147 21.1847 18.0271C20.9437 17.9071 19.7571 17.3259 19.5347 17.2429C19.3122 17.1645 19.15 17.1229 18.9924 17.3628C18.8302 17.6027 18.3667 18.1424 18.2276 18.3038C18.0886 18.4653 17.9449 18.4837 17.7039 18.3638C17.4629 18.2439 16.6842 17.9902 15.7619 17.1691C15.0435 16.5325 14.5569 15.7437 14.4178 15.5038C14.2788 15.264 14.4039 15.1348 14.5244 15.0149C14.631 14.9088 14.7654 14.7335 14.8859 14.5951C15.0064 14.4567 15.0481 14.3553 15.1269 14.1938C15.2057 14.0324 15.1687 13.894 15.1084 13.774C15.0482 13.6587 14.5754 12.4686 14.3622 11.9935Z" fill="white"/>
<defs>
<linearGradient id="paint0_linear_106_729" x1="16.7345" y1="32.4984" x2="16.7345" y2="0.49888" gradientUnits="userSpaceOnUse">
<stop stop-color="#20B038"/>
<stop offset="1" stop-color="#60D66A"/>
</linearGradient>
<linearGradient id="paint1_linear_106_729" x1="16.737" y1="25.4712" x2="16.737" y2="6.73421" gradientUnits="userSpaceOnUse">
<stop stop-color="#20B038"/>
<stop offset="1" stop-color="#60D66A"/>
</linearGradient>
<linearGradient id="paint2_linear_106_729" x1="16.737" y1="25.8068" x2="16.737" y2="6.39795" gradientUnits="userSpaceOnUse">
<stop stop-color="#F9F9F9"/>
<stop offset="1" stop-color="white"/>
</linearGradient>
</defs>
</svg>
